%TF.GenerationSoftware,KiCad,Pcbnew,(5.1.10)-1*%
%TF.CreationDate,2024-02-11T12:05:25-03:30*%
%TF.ProjectId,dpdtFootSwitchBoard,64706474-466f-46f7-9453-776974636842,rev?*%
%TF.SameCoordinates,Original*%
%TF.FileFunction,Copper,L2,Bot*%
%TF.FilePolarity,Positive*%
%FSLAX46Y46*%
G04 Gerber Fmt 4.6, Leading zero omitted, Abs format (unit mm)*
G04 Created by KiCad (PCBNEW (5.1.10)-1) date 2024-02-11 12:05:25*
%MOMM*%
%LPD*%
G01*
G04 APERTURE LIST*
%TA.AperFunction,ComponentPad*%
%ADD10C,4.000000*%
%TD*%
%TA.AperFunction,ComponentPad*%
%ADD11O,1.700000X1.700000*%
%TD*%
%TA.AperFunction,ComponentPad*%
%ADD12R,1.700000X1.700000*%
%TD*%
%TA.AperFunction,Conductor*%
%ADD13C,0.200000*%
%TD*%
%TA.AperFunction,Conductor*%
%ADD14C,0.100000*%
%TD*%
G04 APERTURE END LIST*
D10*
%TO.P,SW1,5*%
%TO.N,Net-(J1-Pad5)*%
X146000000Y-80500000D03*
%TO.P,SW1,1*%
%TO.N,Net-(J1-Pad1)*%
X141000000Y-75500000D03*
%TO.P,SW1,2*%
%TO.N,Net-(J1-Pad2)*%
X141000000Y-80500000D03*
%TO.P,SW1,4*%
%TO.N,Net-(J1-Pad4)*%
X146000000Y-75500000D03*
%TO.P,SW1,7*%
%TO.N,Net-(SW1-Pad7)*%
X151000000Y-75500000D03*
%TO.P,SW1,8*%
%TO.N,Net-(SW1-Pad8)*%
X151000000Y-80500000D03*
%TO.P,SW1,3*%
%TO.N,Net-(J1-Pad3)*%
X141000000Y-85500000D03*
%TO.P,SW1,9*%
%TO.N,Net-(SW1-Pad9)*%
X151000000Y-85500000D03*
%TO.P,SW1,6*%
%TO.N,Net-(J1-Pad6)*%
X146000000Y-85500000D03*
%TD*%
D11*
%TO.P,J1,6*%
%TO.N,Net-(J1-Pad6)*%
X152350000Y-70400000D03*
%TO.P,J1,5*%
%TO.N,Net-(J1-Pad5)*%
X149810000Y-70400000D03*
%TO.P,J1,4*%
%TO.N,Net-(J1-Pad4)*%
X147270000Y-70400000D03*
%TO.P,J1,3*%
%TO.N,Net-(J1-Pad3)*%
X144730000Y-70400000D03*
%TO.P,J1,2*%
%TO.N,Net-(J1-Pad2)*%
X142190000Y-70400000D03*
D12*
%TO.P,J1,1*%
%TO.N,Net-(J1-Pad1)*%
X139650000Y-70400000D03*
%TD*%
D13*
%TO.N,Net-(J1-Pad3)*%
X144122811Y-69194244D02*
X143899247Y-69335869D01*
X143707608Y-69518388D01*
X143555259Y-69734787D01*
X143448055Y-69976749D01*
X143522627Y-70182500D01*
X144512500Y-70182500D01*
X144512500Y-70162500D01*
X144947500Y-70162500D01*
X144947500Y-70182500D01*
X145937373Y-70182500D01*
X146011945Y-69976749D01*
X145904741Y-69734787D01*
X145752392Y-69518388D01*
X145560753Y-69335869D01*
X145337189Y-69194244D01*
X145169997Y-69125000D01*
X146720981Y-69125000D01*
X146624403Y-69262927D01*
X146598256Y-69308214D01*
X146504698Y-69508848D01*
X146487468Y-69556187D01*
X146376737Y-69666918D01*
X146250884Y-69855271D01*
X146164194Y-70064557D01*
X146120000Y-70286735D01*
X146120000Y-70513265D01*
X146164194Y-70735443D01*
X146250884Y-70944729D01*
X146376737Y-71133082D01*
X146400000Y-71156345D01*
X146400000Y-73234505D01*
X146226530Y-73200000D01*
X145773470Y-73200000D01*
X145329115Y-73288387D01*
X144910541Y-73461766D01*
X144533835Y-73713473D01*
X144213473Y-74033835D01*
X143961766Y-74410541D01*
X143788387Y-74829115D01*
X143700000Y-75273470D01*
X143700000Y-75726530D01*
X143754713Y-76001592D01*
X143704698Y-76108848D01*
X143686812Y-76157989D01*
X143629516Y-76371822D01*
X143620436Y-76423320D01*
X143601142Y-76643853D01*
X143600000Y-76670000D01*
X143600000Y-83530000D01*
X143601142Y-83556147D01*
X143620436Y-83776680D01*
X143629516Y-83828178D01*
X143686812Y-84042011D01*
X143704698Y-84091152D01*
X143798256Y-84291786D01*
X143824403Y-84337073D01*
X143929831Y-84487639D01*
X143788387Y-84829115D01*
X143700000Y-85273470D01*
X143700000Y-85726530D01*
X143788387Y-86170885D01*
X143961766Y-86589459D01*
X144213473Y-86966165D01*
X144533835Y-87286527D01*
X144910541Y-87538234D01*
X145329115Y-87711613D01*
X145773470Y-87800000D01*
X146226530Y-87800000D01*
X146670885Y-87711613D01*
X147089459Y-87538234D01*
X147466165Y-87286527D01*
X147786527Y-86966165D01*
X148038234Y-86589459D01*
X148211613Y-86170885D01*
X148300000Y-85726530D01*
X148300000Y-85273470D01*
X148265495Y-85100000D01*
X148734505Y-85100000D01*
X148700000Y-85273470D01*
X148700000Y-85726530D01*
X148788387Y-86170885D01*
X148961766Y-86589459D01*
X149213473Y-86966165D01*
X149533835Y-87286527D01*
X149910541Y-87538234D01*
X150329115Y-87711613D01*
X150773470Y-87800000D01*
X151226530Y-87800000D01*
X151670885Y-87711613D01*
X152089459Y-87538234D01*
X152466165Y-87286527D01*
X152786527Y-86966165D01*
X153038234Y-86589459D01*
X153211613Y-86170885D01*
X153300000Y-85726530D01*
X153300000Y-85273470D01*
X153265495Y-85100000D01*
X155227020Y-85100000D01*
X155253206Y-85098855D01*
X155474065Y-85079503D01*
X155525638Y-85070395D01*
X155739766Y-85012930D01*
X155788969Y-84994993D01*
X155989841Y-84901166D01*
X156035176Y-84874945D01*
X156175000Y-84776849D01*
X156175000Y-88911807D01*
X156125980Y-88981814D01*
X155981814Y-89125980D01*
X155911807Y-89175000D01*
X136088193Y-89175000D01*
X136018186Y-89125980D01*
X135874020Y-88981814D01*
X135825000Y-88911807D01*
X135825000Y-87334707D01*
X139472885Y-87334707D01*
X139704933Y-87652541D01*
X140149756Y-87863835D01*
X140627255Y-87984289D01*
X141119078Y-88009273D01*
X141606325Y-87937828D01*
X142070271Y-87772698D01*
X142295067Y-87652541D01*
X142527115Y-87334707D01*
X141000000Y-85807591D01*
X139472885Y-87334707D01*
X135825000Y-87334707D01*
X135825000Y-85619078D01*
X138490727Y-85619078D01*
X138562172Y-86106325D01*
X138727302Y-86570271D01*
X138847459Y-86795067D01*
X139165293Y-87027115D01*
X140692409Y-85500000D01*
X141307591Y-85500000D01*
X142834707Y-87027115D01*
X143152541Y-86795067D01*
X143363835Y-86350244D01*
X143484289Y-85872745D01*
X143509273Y-85380922D01*
X143437828Y-84893675D01*
X143272698Y-84429729D01*
X143152541Y-84204933D01*
X142834707Y-83972885D01*
X141307591Y-85500000D01*
X140692409Y-85500000D01*
X139165293Y-83972885D01*
X138847459Y-84204933D01*
X138636165Y-84649756D01*
X138515711Y-85127255D01*
X138490727Y-85619078D01*
X135825000Y-85619078D01*
X135825000Y-83665293D01*
X139472885Y-83665293D01*
X141000000Y-85192409D01*
X142527115Y-83665293D01*
X142295067Y-83347459D01*
X141850244Y-83136165D01*
X141372745Y-83015711D01*
X140880922Y-82990727D01*
X140393675Y-83062172D01*
X139929729Y-83227302D01*
X139704933Y-83347459D01*
X139472885Y-83665293D01*
X135825000Y-83665293D01*
X135825000Y-80273470D01*
X138700000Y-80273470D01*
X138700000Y-80726530D01*
X138788387Y-81170885D01*
X138961766Y-81589459D01*
X139213473Y-81966165D01*
X139533835Y-82286527D01*
X139910541Y-82538234D01*
X140329115Y-82711613D01*
X140773470Y-82800000D01*
X141226530Y-82800000D01*
X141670885Y-82711613D01*
X142089459Y-82538234D01*
X142466165Y-82286527D01*
X142786527Y-81966165D01*
X143038234Y-81589459D01*
X143211613Y-81170885D01*
X143300000Y-80726530D01*
X143300000Y-80273470D01*
X143211613Y-79829115D01*
X143038234Y-79410541D01*
X142786527Y-79033835D01*
X142466165Y-78713473D01*
X142089459Y-78461766D01*
X141670885Y-78288387D01*
X141226530Y-78200000D01*
X140773470Y-78200000D01*
X140329115Y-78288387D01*
X139910541Y-78461766D01*
X139533835Y-78713473D01*
X139213473Y-79033835D01*
X138961766Y-79410541D01*
X138788387Y-79829115D01*
X138700000Y-80273470D01*
X135825000Y-80273470D01*
X135825000Y-75273470D01*
X138700000Y-75273470D01*
X138700000Y-75726530D01*
X138788387Y-76170885D01*
X138961766Y-76589459D01*
X139213473Y-76966165D01*
X139533835Y-77286527D01*
X139910541Y-77538234D01*
X140329115Y-77711613D01*
X140773470Y-77800000D01*
X141226530Y-77800000D01*
X141670885Y-77711613D01*
X142089459Y-77538234D01*
X142466165Y-77286527D01*
X142786527Y-76966165D01*
X143038234Y-76589459D01*
X143211613Y-76170885D01*
X143300000Y-75726530D01*
X143300000Y-75273470D01*
X143211613Y-74829115D01*
X143038234Y-74410541D01*
X142786527Y-74033835D01*
X142466165Y-73713473D01*
X142089459Y-73461766D01*
X141670885Y-73288387D01*
X141226530Y-73200000D01*
X140773470Y-73200000D01*
X140329115Y-73288387D01*
X139910541Y-73461766D01*
X139533835Y-73713473D01*
X139213473Y-74033835D01*
X138961766Y-74410541D01*
X138788387Y-74829115D01*
X138700000Y-75273470D01*
X135825000Y-75273470D01*
X135825000Y-69550000D01*
X138498549Y-69550000D01*
X138498549Y-71250000D01*
X138504341Y-71308810D01*
X138521496Y-71365360D01*
X138549353Y-71417477D01*
X138586842Y-71463158D01*
X138632523Y-71500647D01*
X138684640Y-71528504D01*
X138741190Y-71545659D01*
X138800000Y-71551451D01*
X140500000Y-71551451D01*
X140558810Y-71545659D01*
X140615360Y-71528504D01*
X140667477Y-71500647D01*
X140713158Y-71463158D01*
X140750647Y-71417477D01*
X140778504Y-71365360D01*
X140795659Y-71308810D01*
X140801451Y-71250000D01*
X140801451Y-70286735D01*
X141040000Y-70286735D01*
X141040000Y-70513265D01*
X141084194Y-70735443D01*
X141170884Y-70944729D01*
X141296737Y-71133082D01*
X141456918Y-71293263D01*
X141645271Y-71419116D01*
X141854557Y-71505806D01*
X142076735Y-71550000D01*
X142303265Y-71550000D01*
X142525443Y-71505806D01*
X142734729Y-71419116D01*
X142923082Y-71293263D01*
X143083263Y-71133082D01*
X143209116Y-70944729D01*
X143259434Y-70823251D01*
X143448055Y-70823251D01*
X143555259Y-71065213D01*
X143707608Y-71281612D01*
X143899247Y-71464131D01*
X144122811Y-71605756D01*
X144306750Y-71681936D01*
X144512500Y-71605537D01*
X144512500Y-70617500D01*
X144947500Y-70617500D01*
X144947500Y-71605537D01*
X145153250Y-71681936D01*
X145337189Y-71605756D01*
X145560753Y-71464131D01*
X145752392Y-71281612D01*
X145904741Y-71065213D01*
X146011945Y-70823251D01*
X145937373Y-70617500D01*
X144947500Y-70617500D01*
X144512500Y-70617500D01*
X143522627Y-70617500D01*
X143448055Y-70823251D01*
X143259434Y-70823251D01*
X143295806Y-70735443D01*
X143340000Y-70513265D01*
X143340000Y-70286735D01*
X143295806Y-70064557D01*
X143209116Y-69855271D01*
X143083263Y-69666918D01*
X142923082Y-69506737D01*
X142734729Y-69380884D01*
X142525443Y-69294194D01*
X142303265Y-69250000D01*
X142076735Y-69250000D01*
X141854557Y-69294194D01*
X141645271Y-69380884D01*
X141456918Y-69506737D01*
X141296737Y-69666918D01*
X141170884Y-69855271D01*
X141084194Y-70064557D01*
X141040000Y-70286735D01*
X140801451Y-70286735D01*
X140801451Y-69550000D01*
X140795659Y-69491190D01*
X140778504Y-69434640D01*
X140750647Y-69382523D01*
X140713158Y-69336842D01*
X140667477Y-69299353D01*
X140615360Y-69271496D01*
X140558810Y-69254341D01*
X140500000Y-69248549D01*
X138800000Y-69248549D01*
X138741190Y-69254341D01*
X138684640Y-69271496D01*
X138632523Y-69299353D01*
X138586842Y-69336842D01*
X138549353Y-69382523D01*
X138521496Y-69434640D01*
X138504341Y-69491190D01*
X138498549Y-69550000D01*
X135825000Y-69550000D01*
X135825000Y-69388193D01*
X135874020Y-69318186D01*
X136018186Y-69174020D01*
X136088193Y-69125000D01*
X144290003Y-69125000D01*
X144122811Y-69194244D01*
%TA.AperFunction,Conductor*%
D14*
G36*
X144122811Y-69194244D02*
G01*
X143899247Y-69335869D01*
X143707608Y-69518388D01*
X143555259Y-69734787D01*
X143448055Y-69976749D01*
X143522627Y-70182500D01*
X144512500Y-70182500D01*
X144512500Y-70162500D01*
X144947500Y-70162500D01*
X144947500Y-70182500D01*
X145937373Y-70182500D01*
X146011945Y-69976749D01*
X145904741Y-69734787D01*
X145752392Y-69518388D01*
X145560753Y-69335869D01*
X145337189Y-69194244D01*
X145169997Y-69125000D01*
X146720981Y-69125000D01*
X146624403Y-69262927D01*
X146598256Y-69308214D01*
X146504698Y-69508848D01*
X146487468Y-69556187D01*
X146376737Y-69666918D01*
X146250884Y-69855271D01*
X146164194Y-70064557D01*
X146120000Y-70286735D01*
X146120000Y-70513265D01*
X146164194Y-70735443D01*
X146250884Y-70944729D01*
X146376737Y-71133082D01*
X146400000Y-71156345D01*
X146400000Y-73234505D01*
X146226530Y-73200000D01*
X145773470Y-73200000D01*
X145329115Y-73288387D01*
X144910541Y-73461766D01*
X144533835Y-73713473D01*
X144213473Y-74033835D01*
X143961766Y-74410541D01*
X143788387Y-74829115D01*
X143700000Y-75273470D01*
X143700000Y-75726530D01*
X143754713Y-76001592D01*
X143704698Y-76108848D01*
X143686812Y-76157989D01*
X143629516Y-76371822D01*
X143620436Y-76423320D01*
X143601142Y-76643853D01*
X143600000Y-76670000D01*
X143600000Y-83530000D01*
X143601142Y-83556147D01*
X143620436Y-83776680D01*
X143629516Y-83828178D01*
X143686812Y-84042011D01*
X143704698Y-84091152D01*
X143798256Y-84291786D01*
X143824403Y-84337073D01*
X143929831Y-84487639D01*
X143788387Y-84829115D01*
X143700000Y-85273470D01*
X143700000Y-85726530D01*
X143788387Y-86170885D01*
X143961766Y-86589459D01*
X144213473Y-86966165D01*
X144533835Y-87286527D01*
X144910541Y-87538234D01*
X145329115Y-87711613D01*
X145773470Y-87800000D01*
X146226530Y-87800000D01*
X146670885Y-87711613D01*
X147089459Y-87538234D01*
X147466165Y-87286527D01*
X147786527Y-86966165D01*
X148038234Y-86589459D01*
X148211613Y-86170885D01*
X148300000Y-85726530D01*
X148300000Y-85273470D01*
X148265495Y-85100000D01*
X148734505Y-85100000D01*
X148700000Y-85273470D01*
X148700000Y-85726530D01*
X148788387Y-86170885D01*
X148961766Y-86589459D01*
X149213473Y-86966165D01*
X149533835Y-87286527D01*
X149910541Y-87538234D01*
X150329115Y-87711613D01*
X150773470Y-87800000D01*
X151226530Y-87800000D01*
X151670885Y-87711613D01*
X152089459Y-87538234D01*
X152466165Y-87286527D01*
X152786527Y-86966165D01*
X153038234Y-86589459D01*
X153211613Y-86170885D01*
X153300000Y-85726530D01*
X153300000Y-85273470D01*
X153265495Y-85100000D01*
X155227020Y-85100000D01*
X155253206Y-85098855D01*
X155474065Y-85079503D01*
X155525638Y-85070395D01*
X155739766Y-85012930D01*
X155788969Y-84994993D01*
X155989841Y-84901166D01*
X156035176Y-84874945D01*
X156175000Y-84776849D01*
X156175000Y-88911807D01*
X156125980Y-88981814D01*
X155981814Y-89125980D01*
X155911807Y-89175000D01*
X136088193Y-89175000D01*
X136018186Y-89125980D01*
X135874020Y-88981814D01*
X135825000Y-88911807D01*
X135825000Y-87334707D01*
X139472885Y-87334707D01*
X139704933Y-87652541D01*
X140149756Y-87863835D01*
X140627255Y-87984289D01*
X141119078Y-88009273D01*
X141606325Y-87937828D01*
X142070271Y-87772698D01*
X142295067Y-87652541D01*
X142527115Y-87334707D01*
X141000000Y-85807591D01*
X139472885Y-87334707D01*
X135825000Y-87334707D01*
X135825000Y-85619078D01*
X138490727Y-85619078D01*
X138562172Y-86106325D01*
X138727302Y-86570271D01*
X138847459Y-86795067D01*
X139165293Y-87027115D01*
X140692409Y-85500000D01*
X141307591Y-85500000D01*
X142834707Y-87027115D01*
X143152541Y-86795067D01*
X143363835Y-86350244D01*
X143484289Y-85872745D01*
X143509273Y-85380922D01*
X143437828Y-84893675D01*
X143272698Y-84429729D01*
X143152541Y-84204933D01*
X142834707Y-83972885D01*
X141307591Y-85500000D01*
X140692409Y-85500000D01*
X139165293Y-83972885D01*
X138847459Y-84204933D01*
X138636165Y-84649756D01*
X138515711Y-85127255D01*
X138490727Y-85619078D01*
X135825000Y-85619078D01*
X135825000Y-83665293D01*
X139472885Y-83665293D01*
X141000000Y-85192409D01*
X142527115Y-83665293D01*
X142295067Y-83347459D01*
X141850244Y-83136165D01*
X141372745Y-83015711D01*
X140880922Y-82990727D01*
X140393675Y-83062172D01*
X139929729Y-83227302D01*
X139704933Y-83347459D01*
X139472885Y-83665293D01*
X135825000Y-83665293D01*
X135825000Y-80273470D01*
X138700000Y-80273470D01*
X138700000Y-80726530D01*
X138788387Y-81170885D01*
X138961766Y-81589459D01*
X139213473Y-81966165D01*
X139533835Y-82286527D01*
X139910541Y-82538234D01*
X140329115Y-82711613D01*
X140773470Y-82800000D01*
X141226530Y-82800000D01*
X141670885Y-82711613D01*
X142089459Y-82538234D01*
X142466165Y-82286527D01*
X142786527Y-81966165D01*
X143038234Y-81589459D01*
X143211613Y-81170885D01*
X143300000Y-80726530D01*
X143300000Y-80273470D01*
X143211613Y-79829115D01*
X143038234Y-79410541D01*
X142786527Y-79033835D01*
X142466165Y-78713473D01*
X142089459Y-78461766D01*
X141670885Y-78288387D01*
X141226530Y-78200000D01*
X140773470Y-78200000D01*
X140329115Y-78288387D01*
X139910541Y-78461766D01*
X139533835Y-78713473D01*
X139213473Y-79033835D01*
X138961766Y-79410541D01*
X138788387Y-79829115D01*
X138700000Y-80273470D01*
X135825000Y-80273470D01*
X135825000Y-75273470D01*
X138700000Y-75273470D01*
X138700000Y-75726530D01*
X138788387Y-76170885D01*
X138961766Y-76589459D01*
X139213473Y-76966165D01*
X139533835Y-77286527D01*
X139910541Y-77538234D01*
X140329115Y-77711613D01*
X140773470Y-77800000D01*
X141226530Y-77800000D01*
X141670885Y-77711613D01*
X142089459Y-77538234D01*
X142466165Y-77286527D01*
X142786527Y-76966165D01*
X143038234Y-76589459D01*
X143211613Y-76170885D01*
X143300000Y-75726530D01*
X143300000Y-75273470D01*
X143211613Y-74829115D01*
X143038234Y-74410541D01*
X142786527Y-74033835D01*
X142466165Y-73713473D01*
X142089459Y-73461766D01*
X141670885Y-73288387D01*
X141226530Y-73200000D01*
X140773470Y-73200000D01*
X140329115Y-73288387D01*
X139910541Y-73461766D01*
X139533835Y-73713473D01*
X139213473Y-74033835D01*
X138961766Y-74410541D01*
X138788387Y-74829115D01*
X138700000Y-75273470D01*
X135825000Y-75273470D01*
X135825000Y-69550000D01*
X138498549Y-69550000D01*
X138498549Y-71250000D01*
X138504341Y-71308810D01*
X138521496Y-71365360D01*
X138549353Y-71417477D01*
X138586842Y-71463158D01*
X138632523Y-71500647D01*
X138684640Y-71528504D01*
X138741190Y-71545659D01*
X138800000Y-71551451D01*
X140500000Y-71551451D01*
X140558810Y-71545659D01*
X140615360Y-71528504D01*
X140667477Y-71500647D01*
X140713158Y-71463158D01*
X140750647Y-71417477D01*
X140778504Y-71365360D01*
X140795659Y-71308810D01*
X140801451Y-71250000D01*
X140801451Y-70286735D01*
X141040000Y-70286735D01*
X141040000Y-70513265D01*
X141084194Y-70735443D01*
X141170884Y-70944729D01*
X141296737Y-71133082D01*
X141456918Y-71293263D01*
X141645271Y-71419116D01*
X141854557Y-71505806D01*
X142076735Y-71550000D01*
X142303265Y-71550000D01*
X142525443Y-71505806D01*
X142734729Y-71419116D01*
X142923082Y-71293263D01*
X143083263Y-71133082D01*
X143209116Y-70944729D01*
X143259434Y-70823251D01*
X143448055Y-70823251D01*
X143555259Y-71065213D01*
X143707608Y-71281612D01*
X143899247Y-71464131D01*
X144122811Y-71605756D01*
X144306750Y-71681936D01*
X144512500Y-71605537D01*
X144512500Y-70617500D01*
X144947500Y-70617500D01*
X144947500Y-71605537D01*
X145153250Y-71681936D01*
X145337189Y-71605756D01*
X145560753Y-71464131D01*
X145752392Y-71281612D01*
X145904741Y-71065213D01*
X146011945Y-70823251D01*
X145937373Y-70617500D01*
X144947500Y-70617500D01*
X144512500Y-70617500D01*
X143522627Y-70617500D01*
X143448055Y-70823251D01*
X143259434Y-70823251D01*
X143295806Y-70735443D01*
X143340000Y-70513265D01*
X143340000Y-70286735D01*
X143295806Y-70064557D01*
X143209116Y-69855271D01*
X143083263Y-69666918D01*
X142923082Y-69506737D01*
X142734729Y-69380884D01*
X142525443Y-69294194D01*
X142303265Y-69250000D01*
X142076735Y-69250000D01*
X141854557Y-69294194D01*
X141645271Y-69380884D01*
X141456918Y-69506737D01*
X141296737Y-69666918D01*
X141170884Y-69855271D01*
X141084194Y-70064557D01*
X141040000Y-70286735D01*
X140801451Y-70286735D01*
X140801451Y-69550000D01*
X140795659Y-69491190D01*
X140778504Y-69434640D01*
X140750647Y-69382523D01*
X140713158Y-69336842D01*
X140667477Y-69299353D01*
X140615360Y-69271496D01*
X140558810Y-69254341D01*
X140500000Y-69248549D01*
X138800000Y-69248549D01*
X138741190Y-69254341D01*
X138684640Y-69271496D01*
X138632523Y-69299353D01*
X138586842Y-69336842D01*
X138549353Y-69382523D01*
X138521496Y-69434640D01*
X138504341Y-69491190D01*
X138498549Y-69550000D01*
X135825000Y-69550000D01*
X135825000Y-69388193D01*
X135874020Y-69318186D01*
X136018186Y-69174020D01*
X136088193Y-69125000D01*
X144290003Y-69125000D01*
X144122811Y-69194244D01*
G37*
%TD.AperFunction*%
%TD*%
D13*
%TO.N,Net-(J1-Pad5)*%
X149202811Y-69194244D02*
X148979247Y-69335869D01*
X148787608Y-69518388D01*
X148635259Y-69734787D01*
X148528055Y-69976749D01*
X148602627Y-70182500D01*
X149592500Y-70182500D01*
X149592500Y-70162500D01*
X150027500Y-70162500D01*
X150027500Y-70182500D01*
X151017373Y-70182500D01*
X151091945Y-69976749D01*
X150984741Y-69734787D01*
X150832392Y-69518388D01*
X150640753Y-69335869D01*
X150417189Y-69194244D01*
X150249997Y-69125000D01*
X155877333Y-69125000D01*
X155946352Y-69173234D01*
X156090475Y-69317020D01*
X156175001Y-69437367D01*
X156175000Y-84207557D01*
X156123978Y-84280648D01*
X155979769Y-84425195D01*
X155812619Y-84542461D01*
X155627624Y-84628872D01*
X155430422Y-84681795D01*
X155222651Y-84700000D01*
X153158132Y-84700000D01*
X153038234Y-84410541D01*
X152786527Y-84033835D01*
X152466165Y-83713473D01*
X152089459Y-83461766D01*
X151670885Y-83288387D01*
X151226530Y-83200000D01*
X150773470Y-83200000D01*
X150329115Y-83288387D01*
X149910541Y-83461766D01*
X149533835Y-83713473D01*
X149213473Y-84033835D01*
X148961766Y-84410541D01*
X148841868Y-84700000D01*
X148158132Y-84700000D01*
X148038234Y-84410541D01*
X147786527Y-84033835D01*
X147466165Y-83713473D01*
X147089459Y-83461766D01*
X146670885Y-83288387D01*
X146226530Y-83200000D01*
X145773470Y-83200000D01*
X145329115Y-83288387D01*
X144910541Y-83461766D01*
X144533835Y-83713473D01*
X144213473Y-84033835D01*
X144158251Y-84116480D01*
X144157082Y-84114810D01*
X144070919Y-83930034D01*
X144018150Y-83733097D01*
X144000000Y-83525639D01*
X144000000Y-82334707D01*
X144472885Y-82334707D01*
X144704933Y-82652541D01*
X145149756Y-82863835D01*
X145627255Y-82984289D01*
X146119078Y-83009273D01*
X146606325Y-82937828D01*
X147070271Y-82772698D01*
X147295067Y-82652541D01*
X147527115Y-82334707D01*
X146000000Y-80807591D01*
X144472885Y-82334707D01*
X144000000Y-82334707D01*
X144000000Y-81906436D01*
X144165293Y-82027115D01*
X145692409Y-80500000D01*
X146307591Y-80500000D01*
X147834707Y-82027115D01*
X148152541Y-81795067D01*
X148363835Y-81350244D01*
X148484289Y-80872745D01*
X148509273Y-80380922D01*
X148493518Y-80273470D01*
X148700000Y-80273470D01*
X148700000Y-80726530D01*
X148788387Y-81170885D01*
X148961766Y-81589459D01*
X149213473Y-81966165D01*
X149533835Y-82286527D01*
X149910541Y-82538234D01*
X150329115Y-82711613D01*
X150773470Y-82800000D01*
X151226530Y-82800000D01*
X151670885Y-82711613D01*
X152089459Y-82538234D01*
X152466165Y-82286527D01*
X152786527Y-81966165D01*
X153038234Y-81589459D01*
X153211613Y-81170885D01*
X153300000Y-80726530D01*
X153300000Y-80273470D01*
X153211613Y-79829115D01*
X153038234Y-79410541D01*
X152786527Y-79033835D01*
X152466165Y-78713473D01*
X152089459Y-78461766D01*
X151670885Y-78288387D01*
X151226530Y-78200000D01*
X150773470Y-78200000D01*
X150329115Y-78288387D01*
X149910541Y-78461766D01*
X149533835Y-78713473D01*
X149213473Y-79033835D01*
X148961766Y-79410541D01*
X148788387Y-79829115D01*
X148700000Y-80273470D01*
X148493518Y-80273470D01*
X148437828Y-79893675D01*
X148272698Y-79429729D01*
X148152541Y-79204933D01*
X147834707Y-78972885D01*
X146307591Y-80500000D01*
X145692409Y-80500000D01*
X144165293Y-78972885D01*
X144000000Y-79093564D01*
X144000000Y-78665293D01*
X144472885Y-78665293D01*
X146000000Y-80192409D01*
X147527115Y-78665293D01*
X147295067Y-78347459D01*
X146850244Y-78136165D01*
X146372745Y-78015711D01*
X145880922Y-77990727D01*
X145393675Y-78062172D01*
X144929729Y-78227302D01*
X144704933Y-78347459D01*
X144472885Y-78665293D01*
X144000000Y-78665293D01*
X144000000Y-76674361D01*
X144002141Y-76649885D01*
X144213473Y-76966165D01*
X144533835Y-77286527D01*
X144910541Y-77538234D01*
X145329115Y-77711613D01*
X145773470Y-77800000D01*
X146226530Y-77800000D01*
X146670885Y-77711613D01*
X147089459Y-77538234D01*
X147466165Y-77286527D01*
X147786527Y-76966165D01*
X148038234Y-76589459D01*
X148211613Y-76170885D01*
X148300000Y-75726530D01*
X148300000Y-75273470D01*
X148700000Y-75273470D01*
X148700000Y-75726530D01*
X148788387Y-76170885D01*
X148961766Y-76589459D01*
X149213473Y-76966165D01*
X149533835Y-77286527D01*
X149910541Y-77538234D01*
X150329115Y-77711613D01*
X150773470Y-77800000D01*
X151226530Y-77800000D01*
X151670885Y-77711613D01*
X152089459Y-77538234D01*
X152466165Y-77286527D01*
X152786527Y-76966165D01*
X153038234Y-76589459D01*
X153211613Y-76170885D01*
X153300000Y-75726530D01*
X153300000Y-75273470D01*
X153211613Y-74829115D01*
X153038234Y-74410541D01*
X152786527Y-74033835D01*
X152466165Y-73713473D01*
X152089459Y-73461766D01*
X151670885Y-73288387D01*
X151226530Y-73200000D01*
X150773470Y-73200000D01*
X150329115Y-73288387D01*
X149910541Y-73461766D01*
X149533835Y-73713473D01*
X149213473Y-74033835D01*
X148961766Y-74410541D01*
X148788387Y-74829115D01*
X148700000Y-75273470D01*
X148300000Y-75273470D01*
X148211613Y-74829115D01*
X148038234Y-74410541D01*
X147786527Y-74033835D01*
X147466165Y-73713473D01*
X147089459Y-73461766D01*
X146800000Y-73341868D01*
X146800000Y-71450070D01*
X146934557Y-71505806D01*
X147156735Y-71550000D01*
X147383265Y-71550000D01*
X147605443Y-71505806D01*
X147814729Y-71419116D01*
X148003082Y-71293263D01*
X148163263Y-71133082D01*
X148289116Y-70944729D01*
X148339434Y-70823251D01*
X148528055Y-70823251D01*
X148635259Y-71065213D01*
X148787608Y-71281612D01*
X148979247Y-71464131D01*
X149202811Y-71605756D01*
X149386750Y-71681936D01*
X149592500Y-71605537D01*
X149592500Y-70617500D01*
X150027500Y-70617500D01*
X150027500Y-71605537D01*
X150233250Y-71681936D01*
X150417189Y-71605756D01*
X150640753Y-71464131D01*
X150832392Y-71281612D01*
X150984741Y-71065213D01*
X151091945Y-70823251D01*
X151017373Y-70617500D01*
X150027500Y-70617500D01*
X149592500Y-70617500D01*
X148602627Y-70617500D01*
X148528055Y-70823251D01*
X148339434Y-70823251D01*
X148375806Y-70735443D01*
X148420000Y-70513265D01*
X148420000Y-70286735D01*
X151200000Y-70286735D01*
X151200000Y-70513265D01*
X151244194Y-70735443D01*
X151330884Y-70944729D01*
X151456737Y-71133082D01*
X151616918Y-71293263D01*
X151805271Y-71419116D01*
X152014557Y-71505806D01*
X152236735Y-71550000D01*
X152463265Y-71550000D01*
X152685443Y-71505806D01*
X152894729Y-71419116D01*
X153083082Y-71293263D01*
X153243263Y-71133082D01*
X153369116Y-70944729D01*
X153455806Y-70735443D01*
X153500000Y-70513265D01*
X153500000Y-70286735D01*
X153455806Y-70064557D01*
X153369116Y-69855271D01*
X153243263Y-69666918D01*
X153083082Y-69506737D01*
X152894729Y-69380884D01*
X152685443Y-69294194D01*
X152463265Y-69250000D01*
X152236735Y-69250000D01*
X152014557Y-69294194D01*
X151805271Y-69380884D01*
X151616918Y-69506737D01*
X151456737Y-69666918D01*
X151330884Y-69855271D01*
X151244194Y-70064557D01*
X151200000Y-70286735D01*
X148420000Y-70286735D01*
X148375806Y-70064557D01*
X148289116Y-69855271D01*
X148163263Y-69666918D01*
X148003082Y-69506737D01*
X147814729Y-69380884D01*
X147605443Y-69294194D01*
X147383265Y-69250000D01*
X147156735Y-69250000D01*
X147138598Y-69253608D01*
X147218186Y-69174020D01*
X147288193Y-69125000D01*
X149370003Y-69125000D01*
X149202811Y-69194244D01*
%TA.AperFunction,Conductor*%
D14*
G36*
X149202811Y-69194244D02*
G01*
X148979247Y-69335869D01*
X148787608Y-69518388D01*
X148635259Y-69734787D01*
X148528055Y-69976749D01*
X148602627Y-70182500D01*
X149592500Y-70182500D01*
X149592500Y-70162500D01*
X150027500Y-70162500D01*
X150027500Y-70182500D01*
X151017373Y-70182500D01*
X151091945Y-69976749D01*
X150984741Y-69734787D01*
X150832392Y-69518388D01*
X150640753Y-69335869D01*
X150417189Y-69194244D01*
X150249997Y-69125000D01*
X155877333Y-69125000D01*
X155946352Y-69173234D01*
X156090475Y-69317020D01*
X156175001Y-69437367D01*
X156175000Y-84207557D01*
X156123978Y-84280648D01*
X155979769Y-84425195D01*
X155812619Y-84542461D01*
X155627624Y-84628872D01*
X155430422Y-84681795D01*
X155222651Y-84700000D01*
X153158132Y-84700000D01*
X153038234Y-84410541D01*
X152786527Y-84033835D01*
X152466165Y-83713473D01*
X152089459Y-83461766D01*
X151670885Y-83288387D01*
X151226530Y-83200000D01*
X150773470Y-83200000D01*
X150329115Y-83288387D01*
X149910541Y-83461766D01*
X149533835Y-83713473D01*
X149213473Y-84033835D01*
X148961766Y-84410541D01*
X148841868Y-84700000D01*
X148158132Y-84700000D01*
X148038234Y-84410541D01*
X147786527Y-84033835D01*
X147466165Y-83713473D01*
X147089459Y-83461766D01*
X146670885Y-83288387D01*
X146226530Y-83200000D01*
X145773470Y-83200000D01*
X145329115Y-83288387D01*
X144910541Y-83461766D01*
X144533835Y-83713473D01*
X144213473Y-84033835D01*
X144158251Y-84116480D01*
X144157082Y-84114810D01*
X144070919Y-83930034D01*
X144018150Y-83733097D01*
X144000000Y-83525639D01*
X144000000Y-82334707D01*
X144472885Y-82334707D01*
X144704933Y-82652541D01*
X145149756Y-82863835D01*
X145627255Y-82984289D01*
X146119078Y-83009273D01*
X146606325Y-82937828D01*
X147070271Y-82772698D01*
X147295067Y-82652541D01*
X147527115Y-82334707D01*
X146000000Y-80807591D01*
X144472885Y-82334707D01*
X144000000Y-82334707D01*
X144000000Y-81906436D01*
X144165293Y-82027115D01*
X145692409Y-80500000D01*
X146307591Y-80500000D01*
X147834707Y-82027115D01*
X148152541Y-81795067D01*
X148363835Y-81350244D01*
X148484289Y-80872745D01*
X148509273Y-80380922D01*
X148493518Y-80273470D01*
X148700000Y-80273470D01*
X148700000Y-80726530D01*
X148788387Y-81170885D01*
X148961766Y-81589459D01*
X149213473Y-81966165D01*
X149533835Y-82286527D01*
X149910541Y-82538234D01*
X150329115Y-82711613D01*
X150773470Y-82800000D01*
X151226530Y-82800000D01*
X151670885Y-82711613D01*
X152089459Y-82538234D01*
X152466165Y-82286527D01*
X152786527Y-81966165D01*
X153038234Y-81589459D01*
X153211613Y-81170885D01*
X153300000Y-80726530D01*
X153300000Y-80273470D01*
X153211613Y-79829115D01*
X153038234Y-79410541D01*
X152786527Y-79033835D01*
X152466165Y-78713473D01*
X152089459Y-78461766D01*
X151670885Y-78288387D01*
X151226530Y-78200000D01*
X150773470Y-78200000D01*
X150329115Y-78288387D01*
X149910541Y-78461766D01*
X149533835Y-78713473D01*
X149213473Y-79033835D01*
X148961766Y-79410541D01*
X148788387Y-79829115D01*
X148700000Y-80273470D01*
X148493518Y-80273470D01*
X148437828Y-79893675D01*
X148272698Y-79429729D01*
X148152541Y-79204933D01*
X147834707Y-78972885D01*
X146307591Y-80500000D01*
X145692409Y-80500000D01*
X144165293Y-78972885D01*
X144000000Y-79093564D01*
X144000000Y-78665293D01*
X144472885Y-78665293D01*
X146000000Y-80192409D01*
X147527115Y-78665293D01*
X147295067Y-78347459D01*
X146850244Y-78136165D01*
X146372745Y-78015711D01*
X145880922Y-77990727D01*
X145393675Y-78062172D01*
X144929729Y-78227302D01*
X144704933Y-78347459D01*
X144472885Y-78665293D01*
X144000000Y-78665293D01*
X144000000Y-76674361D01*
X144002141Y-76649885D01*
X144213473Y-76966165D01*
X144533835Y-77286527D01*
X144910541Y-77538234D01*
X145329115Y-77711613D01*
X145773470Y-77800000D01*
X146226530Y-77800000D01*
X146670885Y-77711613D01*
X147089459Y-77538234D01*
X147466165Y-77286527D01*
X147786527Y-76966165D01*
X148038234Y-76589459D01*
X148211613Y-76170885D01*
X148300000Y-75726530D01*
X148300000Y-75273470D01*
X148700000Y-75273470D01*
X148700000Y-75726530D01*
X148788387Y-76170885D01*
X148961766Y-76589459D01*
X149213473Y-76966165D01*
X149533835Y-77286527D01*
X149910541Y-77538234D01*
X150329115Y-77711613D01*
X150773470Y-77800000D01*
X151226530Y-77800000D01*
X151670885Y-77711613D01*
X152089459Y-77538234D01*
X152466165Y-77286527D01*
X152786527Y-76966165D01*
X153038234Y-76589459D01*
X153211613Y-76170885D01*
X153300000Y-75726530D01*
X153300000Y-75273470D01*
X153211613Y-74829115D01*
X153038234Y-74410541D01*
X152786527Y-74033835D01*
X152466165Y-73713473D01*
X152089459Y-73461766D01*
X151670885Y-73288387D01*
X151226530Y-73200000D01*
X150773470Y-73200000D01*
X150329115Y-73288387D01*
X149910541Y-73461766D01*
X149533835Y-73713473D01*
X149213473Y-74033835D01*
X148961766Y-74410541D01*
X148788387Y-74829115D01*
X148700000Y-75273470D01*
X148300000Y-75273470D01*
X148211613Y-74829115D01*
X148038234Y-74410541D01*
X147786527Y-74033835D01*
X147466165Y-73713473D01*
X147089459Y-73461766D01*
X146800000Y-73341868D01*
X146800000Y-71450070D01*
X146934557Y-71505806D01*
X147156735Y-71550000D01*
X147383265Y-71550000D01*
X147605443Y-71505806D01*
X147814729Y-71419116D01*
X148003082Y-71293263D01*
X148163263Y-71133082D01*
X148289116Y-70944729D01*
X148339434Y-70823251D01*
X148528055Y-70823251D01*
X148635259Y-71065213D01*
X148787608Y-71281612D01*
X148979247Y-71464131D01*
X149202811Y-71605756D01*
X149386750Y-71681936D01*
X149592500Y-71605537D01*
X149592500Y-70617500D01*
X150027500Y-70617500D01*
X150027500Y-71605537D01*
X150233250Y-71681936D01*
X150417189Y-71605756D01*
X150640753Y-71464131D01*
X150832392Y-71281612D01*
X150984741Y-71065213D01*
X151091945Y-70823251D01*
X151017373Y-70617500D01*
X150027500Y-70617500D01*
X149592500Y-70617500D01*
X148602627Y-70617500D01*
X148528055Y-70823251D01*
X148339434Y-70823251D01*
X148375806Y-70735443D01*
X148420000Y-70513265D01*
X148420000Y-70286735D01*
X151200000Y-70286735D01*
X151200000Y-70513265D01*
X151244194Y-70735443D01*
X151330884Y-70944729D01*
X151456737Y-71133082D01*
X151616918Y-71293263D01*
X151805271Y-71419116D01*
X152014557Y-71505806D01*
X152236735Y-71550000D01*
X152463265Y-71550000D01*
X152685443Y-71505806D01*
X152894729Y-71419116D01*
X153083082Y-71293263D01*
X153243263Y-71133082D01*
X153369116Y-70944729D01*
X153455806Y-70735443D01*
X153500000Y-70513265D01*
X153500000Y-70286735D01*
X153455806Y-70064557D01*
X153369116Y-69855271D01*
X153243263Y-69666918D01*
X153083082Y-69506737D01*
X152894729Y-69380884D01*
X152685443Y-69294194D01*
X152463265Y-69250000D01*
X152236735Y-69250000D01*
X152014557Y-69294194D01*
X151805271Y-69380884D01*
X151616918Y-69506737D01*
X151456737Y-69666918D01*
X151330884Y-69855271D01*
X151244194Y-70064557D01*
X151200000Y-70286735D01*
X148420000Y-70286735D01*
X148375806Y-70064557D01*
X148289116Y-69855271D01*
X148163263Y-69666918D01*
X148003082Y-69506737D01*
X147814729Y-69380884D01*
X147605443Y-69294194D01*
X147383265Y-69250000D01*
X147156735Y-69250000D01*
X147138598Y-69253608D01*
X147218186Y-69174020D01*
X147288193Y-69125000D01*
X149370003Y-69125000D01*
X149202811Y-69194244D01*
G37*
%TD.AperFunction*%
%TD*%
M02*
