%TF.GenerationSoftware,KiCad,Pcbnew,(5.1.10)-1*%
%TF.CreationDate,2021-10-10T15:08:47-03:00*%
%TF.ProjectId,footSwitchBoard,666f6f74-5377-4697-9463-68426f617264,rev?*%
%TF.SameCoordinates,Original*%
%TF.FileFunction,Legend,Bot*%
%TF.FilePolarity,Positive*%
%FSLAX46Y46*%
G04 Gerber Fmt 4.6, Leading zero omitted, Abs format (unit mm)*
G04 Created by KiCad (PCBNEW (5.1.10)-1) date 2021-10-10 15:08:47*
%MOMM*%
%LPD*%
G01*
G04 APERTURE LIST*
%ADD10C,0.150000*%
G04 APERTURE END LIST*
D10*
X155447619Y-85219047D02*
X154733333Y-85219047D01*
X154590476Y-85266666D01*
X154495238Y-85361904D01*
X154447619Y-85504761D01*
X154447619Y-85600000D01*
X154447619Y-84266666D02*
X154447619Y-84742857D01*
X155447619Y-84742857D01*
X154542857Y-83361904D02*
X154495238Y-83409523D01*
X154447619Y-83552380D01*
X154447619Y-83647619D01*
X154495238Y-83790476D01*
X154590476Y-83885714D01*
X154685714Y-83933333D01*
X154876190Y-83980952D01*
X155019047Y-83980952D01*
X155209523Y-83933333D01*
X155304761Y-83885714D01*
X155400000Y-83790476D01*
X155447619Y-83647619D01*
X155447619Y-83552380D01*
X155400000Y-83409523D01*
X155352380Y-83361904D01*
X155447619Y-82647619D02*
X154733333Y-82647619D01*
X154590476Y-82695238D01*
X154495238Y-82790476D01*
X154447619Y-82933333D01*
X154447619Y-83028571D01*
X154447619Y-81695238D02*
X154447619Y-82171428D01*
X155447619Y-82171428D01*
X154542857Y-80790476D02*
X154495238Y-80838095D01*
X154447619Y-80980952D01*
X154447619Y-81076190D01*
X154495238Y-81219047D01*
X154590476Y-81314285D01*
X154685714Y-81361904D01*
X154876190Y-81409523D01*
X155019047Y-81409523D01*
X155209523Y-81361904D01*
X155304761Y-81314285D01*
X155400000Y-81219047D01*
X155447619Y-81076190D01*
X155447619Y-80980952D01*
X155400000Y-80838095D01*
X155352380Y-80790476D01*
X155447619Y-80076190D02*
X154733333Y-80076190D01*
X154590476Y-80123809D01*
X154495238Y-80219047D01*
X154447619Y-80361904D01*
X154447619Y-80457142D01*
X154447619Y-79123809D02*
X154447619Y-79600000D01*
X155447619Y-79600000D01*
X154542857Y-78219047D02*
X154495238Y-78266666D01*
X154447619Y-78409523D01*
X154447619Y-78504761D01*
X154495238Y-78647619D01*
X154590476Y-78742857D01*
X154685714Y-78790476D01*
X154876190Y-78838095D01*
X155019047Y-78838095D01*
X155209523Y-78790476D01*
X155304761Y-78742857D01*
X155400000Y-78647619D01*
X155447619Y-78504761D01*
X155447619Y-78409523D01*
X155400000Y-78266666D01*
X155352380Y-78219047D01*
X155447619Y-77504761D02*
X154733333Y-77504761D01*
X154590476Y-77552380D01*
X154495238Y-77647619D01*
X154447619Y-77790476D01*
X154447619Y-77885714D01*
X154447619Y-76552380D02*
X154447619Y-77028571D01*
X155447619Y-77028571D01*
X154542857Y-75647619D02*
X154495238Y-75695238D01*
X154447619Y-75838095D01*
X154447619Y-75933333D01*
X154495238Y-76076190D01*
X154590476Y-76171428D01*
X154685714Y-76219047D01*
X154876190Y-76266666D01*
X155019047Y-76266666D01*
X155209523Y-76219047D01*
X155304761Y-76171428D01*
X155400000Y-76076190D01*
X155447619Y-75933333D01*
X155447619Y-75838095D01*
X155400000Y-75695238D01*
X155352380Y-75647619D01*
M02*
