%TF.GenerationSoftware,KiCad,Pcbnew,(5.1.10)-1*%
%TF.CreationDate,2021-10-10T15:08:46-03:00*%
%TF.ProjectId,footSwitchBoard,666f6f74-5377-4697-9463-68426f617264,rev?*%
%TF.SameCoordinates,Original*%
%TF.FileFunction,Copper,L2,Bot*%
%TF.FilePolarity,Positive*%
%FSLAX46Y46*%
G04 Gerber Fmt 4.6, Leading zero omitted, Abs format (unit mm)*
G04 Created by KiCad (PCBNEW (5.1.10)-1) date 2021-10-10 15:08:46*
%MOMM*%
%LPD*%
G01*
G04 APERTURE LIST*
%TA.AperFunction,ComponentPad*%
%ADD10O,1.700000X1.700000*%
%TD*%
%TA.AperFunction,ComponentPad*%
%ADD11R,1.700000X1.700000*%
%TD*%
%TA.AperFunction,ComponentPad*%
%ADD12C,4.000000*%
%TD*%
%TA.AperFunction,Conductor*%
%ADD13C,0.635000*%
%TD*%
%TA.AperFunction,Conductor*%
%ADD14C,0.200000*%
%TD*%
%TA.AperFunction,Conductor*%
%ADD15C,0.100000*%
%TD*%
G04 APERTURE END LIST*
D10*
%TO.P,J1,4*%
%TO.N,/RTN*%
X144730000Y-70400000D03*
%TO.P,J1,6*%
%TO.N,/LED+*%
X149810000Y-70400000D03*
%TO.P,J1,7*%
%TO.N,/V+*%
X152350000Y-70400000D03*
%TO.P,J1,3*%
%TO.N,/SND*%
X142190000Y-70400000D03*
%TO.P,J1,5*%
%TO.N,/OUT*%
X147270000Y-70400000D03*
%TO.P,J1,8*%
%TO.N,Earth*%
X154890000Y-70400000D03*
D11*
%TO.P,J1,1*%
X137110000Y-70400000D03*
D10*
%TO.P,J1,2*%
%TO.N,/IN*%
X139650000Y-70400000D03*
%TD*%
D12*
%TO.P,SW1,5*%
%TO.N,/OUT*%
X146000000Y-80500000D03*
%TO.P,SW1,1*%
%TO.N,/IN*%
X141000000Y-75500000D03*
%TO.P,SW1,2*%
%TO.N,/SND*%
X141000000Y-80500000D03*
%TO.P,SW1,4*%
%TO.N,/RTN*%
X146000000Y-75500000D03*
%TO.P,SW1,7*%
%TO.N,/V+*%
X151000000Y-75500000D03*
%TO.P,SW1,8*%
%TO.N,/LED+*%
X151000000Y-80500000D03*
%TO.P,SW1,3*%
%TO.N,Earth*%
X141000000Y-85500000D03*
%TO.P,SW1,9*%
X151000000Y-85500000D03*
%TO.P,SW1,6*%
%TO.N,/IN*%
X146000000Y-85500000D03*
%TD*%
D13*
%TO.N,/V+*%
X152900000Y-73600000D02*
X151000000Y-75500000D01*
X152900000Y-70950000D02*
X152900000Y-73600000D01*
X152350000Y-70400000D02*
X152900000Y-70950000D01*
%TD*%
D14*
%TO.N,Earth*%
X145524403Y-69262927D02*
X145498256Y-69308214D01*
X145419318Y-69477495D01*
X145274729Y-69380884D01*
X145065443Y-69294194D01*
X144843265Y-69250000D01*
X144616735Y-69250000D01*
X144394557Y-69294194D01*
X144185271Y-69380884D01*
X143996918Y-69506737D01*
X143836737Y-69666918D01*
X143710884Y-69855271D01*
X143624194Y-70064557D01*
X143580000Y-70286735D01*
X143580000Y-70513265D01*
X143624194Y-70735443D01*
X143710884Y-70944729D01*
X143836737Y-71133082D01*
X143996918Y-71293263D01*
X144185271Y-71419116D01*
X144394557Y-71505806D01*
X144616735Y-71550000D01*
X144843265Y-71550000D01*
X145065443Y-71505806D01*
X145274729Y-71419116D01*
X145300000Y-71402231D01*
X145300000Y-73300447D01*
X144910541Y-73461766D01*
X144533835Y-73713473D01*
X144213473Y-74033835D01*
X143961766Y-74410541D01*
X143788387Y-74829115D01*
X143700000Y-75273470D01*
X143700000Y-75700000D01*
X143300000Y-75700000D01*
X143300000Y-75273470D01*
X143211613Y-74829115D01*
X143038234Y-74410541D01*
X142786527Y-74033835D01*
X142466165Y-73713473D01*
X142089459Y-73461766D01*
X141670885Y-73288387D01*
X141226530Y-73200000D01*
X140773470Y-73200000D01*
X140329115Y-73288387D01*
X139910541Y-73461766D01*
X139533835Y-73713473D01*
X139213473Y-74033835D01*
X138961766Y-74410541D01*
X138788387Y-74829115D01*
X138700000Y-75273470D01*
X138700000Y-75726530D01*
X138788387Y-76170885D01*
X138857887Y-76338672D01*
X138772315Y-76460433D01*
X138746130Y-76505590D01*
X138652332Y-76705673D01*
X138634371Y-76754685D01*
X138576675Y-76967999D01*
X138567481Y-77019384D01*
X138547635Y-77239469D01*
X138546424Y-77265565D01*
X138528624Y-83566659D01*
X138529706Y-83592971D01*
X138548614Y-83814920D01*
X138557661Y-83866755D01*
X138615057Y-84081985D01*
X138633021Y-84131442D01*
X138727139Y-84333334D01*
X138753469Y-84378892D01*
X138760242Y-84388545D01*
X138636165Y-84649756D01*
X138515711Y-85127255D01*
X138490727Y-85619078D01*
X138562172Y-86106325D01*
X138727302Y-86570271D01*
X138847459Y-86795067D01*
X139165293Y-87027115D01*
X140692409Y-85500000D01*
X140678267Y-85485858D01*
X140985858Y-85178267D01*
X141000000Y-85192409D01*
X141014143Y-85178267D01*
X141321734Y-85485858D01*
X141307591Y-85500000D01*
X142834707Y-87027115D01*
X143152541Y-86795067D01*
X143363835Y-86350244D01*
X143484289Y-85872745D01*
X143509273Y-85380922D01*
X143470667Y-85117634D01*
X143731359Y-85115817D01*
X143700000Y-85273470D01*
X143700000Y-85726530D01*
X143788387Y-86170885D01*
X143961766Y-86589459D01*
X144213473Y-86966165D01*
X144533835Y-87286527D01*
X144910541Y-87538234D01*
X145329115Y-87711613D01*
X145773470Y-87800000D01*
X146226530Y-87800000D01*
X146670885Y-87711613D01*
X147089459Y-87538234D01*
X147394058Y-87334707D01*
X149472885Y-87334707D01*
X149704933Y-87652541D01*
X150149756Y-87863835D01*
X150627255Y-87984289D01*
X151119078Y-88009273D01*
X151606325Y-87937828D01*
X152070271Y-87772698D01*
X152295067Y-87652541D01*
X152527115Y-87334707D01*
X151000000Y-85807591D01*
X149472885Y-87334707D01*
X147394058Y-87334707D01*
X147466165Y-87286527D01*
X147786527Y-86966165D01*
X148038234Y-86589459D01*
X148211613Y-86170885D01*
X148300000Y-85726530D01*
X148300000Y-85273470D01*
X148262361Y-85084242D01*
X148527027Y-85082398D01*
X148515711Y-85127255D01*
X148490727Y-85619078D01*
X148562172Y-86106325D01*
X148727302Y-86570271D01*
X148847459Y-86795067D01*
X149165293Y-87027115D01*
X150692409Y-85500000D01*
X150678267Y-85485858D01*
X150985858Y-85178267D01*
X151000000Y-85192409D01*
X151014142Y-85178266D01*
X151321734Y-85485858D01*
X151307591Y-85500000D01*
X152834707Y-87027115D01*
X153152541Y-86795067D01*
X153363835Y-86350244D01*
X153484289Y-85872745D01*
X153509273Y-85380922D01*
X153437828Y-84893675D01*
X153272698Y-84429729D01*
X153219821Y-84330804D01*
X153249059Y-84288547D01*
X153274921Y-84243184D01*
X153367275Y-84042343D01*
X153384880Y-83993180D01*
X153441008Y-83779367D01*
X153449820Y-83727899D01*
X153468023Y-83507593D01*
X153469039Y-83481478D01*
X153424123Y-73929370D01*
X153473255Y-73837450D01*
X153508565Y-73721051D01*
X153517500Y-73630329D01*
X153517500Y-73630326D01*
X153520487Y-73600000D01*
X153517500Y-73569674D01*
X153517500Y-70980325D01*
X153520487Y-70949999D01*
X153517500Y-70919671D01*
X153508565Y-70828949D01*
X153506837Y-70823251D01*
X153608055Y-70823251D01*
X153715259Y-71065213D01*
X153867608Y-71281612D01*
X154059247Y-71464131D01*
X154282811Y-71605756D01*
X154466750Y-71681936D01*
X154672500Y-71605537D01*
X154672500Y-70617500D01*
X153682627Y-70617500D01*
X153608055Y-70823251D01*
X153506837Y-70823251D01*
X153473255Y-70712550D01*
X153463857Y-70694968D01*
X153500000Y-70513265D01*
X153500000Y-70286735D01*
X153455806Y-70064557D01*
X153393403Y-69913906D01*
X153384470Y-69816767D01*
X153375202Y-69765460D01*
X153317242Y-69552492D01*
X153299231Y-69503565D01*
X153205274Y-69303847D01*
X153179064Y-69258776D01*
X153084819Y-69125000D01*
X154450003Y-69125000D01*
X154282811Y-69194244D01*
X154059247Y-69335869D01*
X153867608Y-69518388D01*
X153715259Y-69734787D01*
X153608055Y-69976749D01*
X153682627Y-70182500D01*
X154672500Y-70182500D01*
X154672500Y-70162500D01*
X155107500Y-70162500D01*
X155107500Y-70182500D01*
X155127500Y-70182500D01*
X155127500Y-70617500D01*
X155107500Y-70617500D01*
X155107500Y-71605537D01*
X155313250Y-71681936D01*
X155497189Y-71605756D01*
X155720753Y-71464131D01*
X155912392Y-71281612D01*
X156064741Y-71065213D01*
X156171945Y-70823251D01*
X156097374Y-70617502D01*
X156175001Y-70617502D01*
X156175000Y-88911806D01*
X156125980Y-88981814D01*
X155981814Y-89125980D01*
X155911807Y-89175000D01*
X136088193Y-89175000D01*
X136018186Y-89125980D01*
X135874020Y-88981814D01*
X135825000Y-88911807D01*
X135825000Y-87334707D01*
X139472885Y-87334707D01*
X139704933Y-87652541D01*
X140149756Y-87863835D01*
X140627255Y-87984289D01*
X141119078Y-88009273D01*
X141606325Y-87937828D01*
X142070271Y-87772698D01*
X142295067Y-87652541D01*
X142527115Y-87334707D01*
X141000000Y-85807591D01*
X139472885Y-87334707D01*
X135825000Y-87334707D01*
X135825000Y-71496849D01*
X135842254Y-71529129D01*
X135904736Y-71605264D01*
X135980871Y-71667746D01*
X136067733Y-71714175D01*
X136161983Y-71742765D01*
X136260000Y-71752419D01*
X136767500Y-71750000D01*
X136892500Y-71625000D01*
X136892500Y-70617500D01*
X137327500Y-70617500D01*
X137327500Y-71625000D01*
X137452500Y-71750000D01*
X137960000Y-71752419D01*
X138058017Y-71742765D01*
X138152267Y-71714175D01*
X138239129Y-71667746D01*
X138315264Y-71605264D01*
X138377746Y-71529129D01*
X138424175Y-71442267D01*
X138452765Y-71348017D01*
X138462419Y-71250000D01*
X138460000Y-70742500D01*
X138335000Y-70617500D01*
X137327500Y-70617500D01*
X136892500Y-70617500D01*
X136872500Y-70617500D01*
X136872500Y-70286735D01*
X138500000Y-70286735D01*
X138500000Y-70513265D01*
X138544194Y-70735443D01*
X138630884Y-70944729D01*
X138756737Y-71133082D01*
X138916918Y-71293263D01*
X139105271Y-71419116D01*
X139314557Y-71505806D01*
X139536735Y-71550000D01*
X139763265Y-71550000D01*
X139985443Y-71505806D01*
X140194729Y-71419116D01*
X140383082Y-71293263D01*
X140543263Y-71133082D01*
X140669116Y-70944729D01*
X140755806Y-70735443D01*
X140800000Y-70513265D01*
X140800000Y-70286735D01*
X141040000Y-70286735D01*
X141040000Y-70513265D01*
X141084194Y-70735443D01*
X141170884Y-70944729D01*
X141296737Y-71133082D01*
X141456918Y-71293263D01*
X141645271Y-71419116D01*
X141854557Y-71505806D01*
X142076735Y-71550000D01*
X142303265Y-71550000D01*
X142525443Y-71505806D01*
X142734729Y-71419116D01*
X142923082Y-71293263D01*
X143083263Y-71133082D01*
X143209116Y-70944729D01*
X143295806Y-70735443D01*
X143340000Y-70513265D01*
X143340000Y-70286735D01*
X143295806Y-70064557D01*
X143209116Y-69855271D01*
X143083263Y-69666918D01*
X142923082Y-69506737D01*
X142734729Y-69380884D01*
X142525443Y-69294194D01*
X142303265Y-69250000D01*
X142076735Y-69250000D01*
X141854557Y-69294194D01*
X141645271Y-69380884D01*
X141456918Y-69506737D01*
X141296737Y-69666918D01*
X141170884Y-69855271D01*
X141084194Y-70064557D01*
X141040000Y-70286735D01*
X140800000Y-70286735D01*
X140755806Y-70064557D01*
X140669116Y-69855271D01*
X140543263Y-69666918D01*
X140383082Y-69506737D01*
X140194729Y-69380884D01*
X139985443Y-69294194D01*
X139763265Y-69250000D01*
X139536735Y-69250000D01*
X139314557Y-69294194D01*
X139105271Y-69380884D01*
X138916918Y-69506737D01*
X138756737Y-69666918D01*
X138630884Y-69855271D01*
X138544194Y-70064557D01*
X138500000Y-70286735D01*
X136872500Y-70286735D01*
X136872500Y-70182500D01*
X136892500Y-70182500D01*
X136892500Y-70162500D01*
X137327500Y-70162500D01*
X137327500Y-70182500D01*
X138335000Y-70182500D01*
X138460000Y-70057500D01*
X138462419Y-69550000D01*
X138452765Y-69451983D01*
X138424175Y-69357733D01*
X138377746Y-69270871D01*
X138315264Y-69194736D01*
X138239129Y-69132254D01*
X138225558Y-69125000D01*
X145620981Y-69125000D01*
X145524403Y-69262927D01*
%TA.AperFunction,Conductor*%
D15*
G36*
X145524403Y-69262927D02*
G01*
X145498256Y-69308214D01*
X145419318Y-69477495D01*
X145274729Y-69380884D01*
X145065443Y-69294194D01*
X144843265Y-69250000D01*
X144616735Y-69250000D01*
X144394557Y-69294194D01*
X144185271Y-69380884D01*
X143996918Y-69506737D01*
X143836737Y-69666918D01*
X143710884Y-69855271D01*
X143624194Y-70064557D01*
X143580000Y-70286735D01*
X143580000Y-70513265D01*
X143624194Y-70735443D01*
X143710884Y-70944729D01*
X143836737Y-71133082D01*
X143996918Y-71293263D01*
X144185271Y-71419116D01*
X144394557Y-71505806D01*
X144616735Y-71550000D01*
X144843265Y-71550000D01*
X145065443Y-71505806D01*
X145274729Y-71419116D01*
X145300000Y-71402231D01*
X145300000Y-73300447D01*
X144910541Y-73461766D01*
X144533835Y-73713473D01*
X144213473Y-74033835D01*
X143961766Y-74410541D01*
X143788387Y-74829115D01*
X143700000Y-75273470D01*
X143700000Y-75700000D01*
X143300000Y-75700000D01*
X143300000Y-75273470D01*
X143211613Y-74829115D01*
X143038234Y-74410541D01*
X142786527Y-74033835D01*
X142466165Y-73713473D01*
X142089459Y-73461766D01*
X141670885Y-73288387D01*
X141226530Y-73200000D01*
X140773470Y-73200000D01*
X140329115Y-73288387D01*
X139910541Y-73461766D01*
X139533835Y-73713473D01*
X139213473Y-74033835D01*
X138961766Y-74410541D01*
X138788387Y-74829115D01*
X138700000Y-75273470D01*
X138700000Y-75726530D01*
X138788387Y-76170885D01*
X138857887Y-76338672D01*
X138772315Y-76460433D01*
X138746130Y-76505590D01*
X138652332Y-76705673D01*
X138634371Y-76754685D01*
X138576675Y-76967999D01*
X138567481Y-77019384D01*
X138547635Y-77239469D01*
X138546424Y-77265565D01*
X138528624Y-83566659D01*
X138529706Y-83592971D01*
X138548614Y-83814920D01*
X138557661Y-83866755D01*
X138615057Y-84081985D01*
X138633021Y-84131442D01*
X138727139Y-84333334D01*
X138753469Y-84378892D01*
X138760242Y-84388545D01*
X138636165Y-84649756D01*
X138515711Y-85127255D01*
X138490727Y-85619078D01*
X138562172Y-86106325D01*
X138727302Y-86570271D01*
X138847459Y-86795067D01*
X139165293Y-87027115D01*
X140692409Y-85500000D01*
X140678267Y-85485858D01*
X140985858Y-85178267D01*
X141000000Y-85192409D01*
X141014143Y-85178267D01*
X141321734Y-85485858D01*
X141307591Y-85500000D01*
X142834707Y-87027115D01*
X143152541Y-86795067D01*
X143363835Y-86350244D01*
X143484289Y-85872745D01*
X143509273Y-85380922D01*
X143470667Y-85117634D01*
X143731359Y-85115817D01*
X143700000Y-85273470D01*
X143700000Y-85726530D01*
X143788387Y-86170885D01*
X143961766Y-86589459D01*
X144213473Y-86966165D01*
X144533835Y-87286527D01*
X144910541Y-87538234D01*
X145329115Y-87711613D01*
X145773470Y-87800000D01*
X146226530Y-87800000D01*
X146670885Y-87711613D01*
X147089459Y-87538234D01*
X147394058Y-87334707D01*
X149472885Y-87334707D01*
X149704933Y-87652541D01*
X150149756Y-87863835D01*
X150627255Y-87984289D01*
X151119078Y-88009273D01*
X151606325Y-87937828D01*
X152070271Y-87772698D01*
X152295067Y-87652541D01*
X152527115Y-87334707D01*
X151000000Y-85807591D01*
X149472885Y-87334707D01*
X147394058Y-87334707D01*
X147466165Y-87286527D01*
X147786527Y-86966165D01*
X148038234Y-86589459D01*
X148211613Y-86170885D01*
X148300000Y-85726530D01*
X148300000Y-85273470D01*
X148262361Y-85084242D01*
X148527027Y-85082398D01*
X148515711Y-85127255D01*
X148490727Y-85619078D01*
X148562172Y-86106325D01*
X148727302Y-86570271D01*
X148847459Y-86795067D01*
X149165293Y-87027115D01*
X150692409Y-85500000D01*
X150678267Y-85485858D01*
X150985858Y-85178267D01*
X151000000Y-85192409D01*
X151014142Y-85178266D01*
X151321734Y-85485858D01*
X151307591Y-85500000D01*
X152834707Y-87027115D01*
X153152541Y-86795067D01*
X153363835Y-86350244D01*
X153484289Y-85872745D01*
X153509273Y-85380922D01*
X153437828Y-84893675D01*
X153272698Y-84429729D01*
X153219821Y-84330804D01*
X153249059Y-84288547D01*
X153274921Y-84243184D01*
X153367275Y-84042343D01*
X153384880Y-83993180D01*
X153441008Y-83779367D01*
X153449820Y-83727899D01*
X153468023Y-83507593D01*
X153469039Y-83481478D01*
X153424123Y-73929370D01*
X153473255Y-73837450D01*
X153508565Y-73721051D01*
X153517500Y-73630329D01*
X153517500Y-73630326D01*
X153520487Y-73600000D01*
X153517500Y-73569674D01*
X153517500Y-70980325D01*
X153520487Y-70949999D01*
X153517500Y-70919671D01*
X153508565Y-70828949D01*
X153506837Y-70823251D01*
X153608055Y-70823251D01*
X153715259Y-71065213D01*
X153867608Y-71281612D01*
X154059247Y-71464131D01*
X154282811Y-71605756D01*
X154466750Y-71681936D01*
X154672500Y-71605537D01*
X154672500Y-70617500D01*
X153682627Y-70617500D01*
X153608055Y-70823251D01*
X153506837Y-70823251D01*
X153473255Y-70712550D01*
X153463857Y-70694968D01*
X153500000Y-70513265D01*
X153500000Y-70286735D01*
X153455806Y-70064557D01*
X153393403Y-69913906D01*
X153384470Y-69816767D01*
X153375202Y-69765460D01*
X153317242Y-69552492D01*
X153299231Y-69503565D01*
X153205274Y-69303847D01*
X153179064Y-69258776D01*
X153084819Y-69125000D01*
X154450003Y-69125000D01*
X154282811Y-69194244D01*
X154059247Y-69335869D01*
X153867608Y-69518388D01*
X153715259Y-69734787D01*
X153608055Y-69976749D01*
X153682627Y-70182500D01*
X154672500Y-70182500D01*
X154672500Y-70162500D01*
X155107500Y-70162500D01*
X155107500Y-70182500D01*
X155127500Y-70182500D01*
X155127500Y-70617500D01*
X155107500Y-70617500D01*
X155107500Y-71605537D01*
X155313250Y-71681936D01*
X155497189Y-71605756D01*
X155720753Y-71464131D01*
X155912392Y-71281612D01*
X156064741Y-71065213D01*
X156171945Y-70823251D01*
X156097374Y-70617502D01*
X156175001Y-70617502D01*
X156175000Y-88911806D01*
X156125980Y-88981814D01*
X155981814Y-89125980D01*
X155911807Y-89175000D01*
X136088193Y-89175000D01*
X136018186Y-89125980D01*
X135874020Y-88981814D01*
X135825000Y-88911807D01*
X135825000Y-87334707D01*
X139472885Y-87334707D01*
X139704933Y-87652541D01*
X140149756Y-87863835D01*
X140627255Y-87984289D01*
X141119078Y-88009273D01*
X141606325Y-87937828D01*
X142070271Y-87772698D01*
X142295067Y-87652541D01*
X142527115Y-87334707D01*
X141000000Y-85807591D01*
X139472885Y-87334707D01*
X135825000Y-87334707D01*
X135825000Y-71496849D01*
X135842254Y-71529129D01*
X135904736Y-71605264D01*
X135980871Y-71667746D01*
X136067733Y-71714175D01*
X136161983Y-71742765D01*
X136260000Y-71752419D01*
X136767500Y-71750000D01*
X136892500Y-71625000D01*
X136892500Y-70617500D01*
X137327500Y-70617500D01*
X137327500Y-71625000D01*
X137452500Y-71750000D01*
X137960000Y-71752419D01*
X138058017Y-71742765D01*
X138152267Y-71714175D01*
X138239129Y-71667746D01*
X138315264Y-71605264D01*
X138377746Y-71529129D01*
X138424175Y-71442267D01*
X138452765Y-71348017D01*
X138462419Y-71250000D01*
X138460000Y-70742500D01*
X138335000Y-70617500D01*
X137327500Y-70617500D01*
X136892500Y-70617500D01*
X136872500Y-70617500D01*
X136872500Y-70286735D01*
X138500000Y-70286735D01*
X138500000Y-70513265D01*
X138544194Y-70735443D01*
X138630884Y-70944729D01*
X138756737Y-71133082D01*
X138916918Y-71293263D01*
X139105271Y-71419116D01*
X139314557Y-71505806D01*
X139536735Y-71550000D01*
X139763265Y-71550000D01*
X139985443Y-71505806D01*
X140194729Y-71419116D01*
X140383082Y-71293263D01*
X140543263Y-71133082D01*
X140669116Y-70944729D01*
X140755806Y-70735443D01*
X140800000Y-70513265D01*
X140800000Y-70286735D01*
X141040000Y-70286735D01*
X141040000Y-70513265D01*
X141084194Y-70735443D01*
X141170884Y-70944729D01*
X141296737Y-71133082D01*
X141456918Y-71293263D01*
X141645271Y-71419116D01*
X141854557Y-71505806D01*
X142076735Y-71550000D01*
X142303265Y-71550000D01*
X142525443Y-71505806D01*
X142734729Y-71419116D01*
X142923082Y-71293263D01*
X143083263Y-71133082D01*
X143209116Y-70944729D01*
X143295806Y-70735443D01*
X143340000Y-70513265D01*
X143340000Y-70286735D01*
X143295806Y-70064557D01*
X143209116Y-69855271D01*
X143083263Y-69666918D01*
X142923082Y-69506737D01*
X142734729Y-69380884D01*
X142525443Y-69294194D01*
X142303265Y-69250000D01*
X142076735Y-69250000D01*
X141854557Y-69294194D01*
X141645271Y-69380884D01*
X141456918Y-69506737D01*
X141296737Y-69666918D01*
X141170884Y-69855271D01*
X141084194Y-70064557D01*
X141040000Y-70286735D01*
X140800000Y-70286735D01*
X140755806Y-70064557D01*
X140669116Y-69855271D01*
X140543263Y-69666918D01*
X140383082Y-69506737D01*
X140194729Y-69380884D01*
X139985443Y-69294194D01*
X139763265Y-69250000D01*
X139536735Y-69250000D01*
X139314557Y-69294194D01*
X139105271Y-69380884D01*
X138916918Y-69506737D01*
X138756737Y-69666918D01*
X138630884Y-69855271D01*
X138544194Y-70064557D01*
X138500000Y-70286735D01*
X136872500Y-70286735D01*
X136872500Y-70182500D01*
X136892500Y-70182500D01*
X136892500Y-70162500D01*
X137327500Y-70162500D01*
X137327500Y-70182500D01*
X138335000Y-70182500D01*
X138460000Y-70057500D01*
X138462419Y-69550000D01*
X138452765Y-69451983D01*
X138424175Y-69357733D01*
X138377746Y-69270871D01*
X138315264Y-69194736D01*
X138239129Y-69132254D01*
X138225558Y-69125000D01*
X145620981Y-69125000D01*
X145524403Y-69262927D01*
G37*
%TD.AperFunction*%
%TD*%
D14*
%TO.N,/OUT*%
X146662811Y-69194244D02*
X146439247Y-69335869D01*
X146247608Y-69518388D01*
X146095259Y-69734787D01*
X145988055Y-69976749D01*
X146062627Y-70182500D01*
X147052500Y-70182500D01*
X147052500Y-70162500D01*
X147487500Y-70162500D01*
X147487500Y-70182500D01*
X148477373Y-70182500D01*
X148551945Y-69976749D01*
X148444741Y-69734787D01*
X148292392Y-69518388D01*
X148100753Y-69335869D01*
X147877189Y-69194244D01*
X147709997Y-69125000D01*
X152517870Y-69125000D01*
X152585902Y-69172451D01*
X152724454Y-69310353D01*
X152685443Y-69294194D01*
X152463265Y-69250000D01*
X152236735Y-69250000D01*
X152014557Y-69294194D01*
X151805271Y-69380884D01*
X151616918Y-69506737D01*
X151456737Y-69666918D01*
X151330884Y-69855271D01*
X151244194Y-70064557D01*
X151200000Y-70286735D01*
X151200000Y-70513265D01*
X151244194Y-70735443D01*
X151330884Y-70944729D01*
X151456737Y-71133082D01*
X151616918Y-71293263D01*
X151805271Y-71419116D01*
X152014557Y-71505806D01*
X152236735Y-71550000D01*
X152282500Y-71550000D01*
X152282501Y-73344222D01*
X152134717Y-73492006D01*
X152089459Y-73461766D01*
X151670885Y-73288387D01*
X151226530Y-73200000D01*
X150773470Y-73200000D01*
X150329115Y-73288387D01*
X149910541Y-73461766D01*
X149533835Y-73713473D01*
X149213473Y-74033835D01*
X148961766Y-74410541D01*
X148788387Y-74829115D01*
X148700000Y-75273470D01*
X148700000Y-75726530D01*
X148788387Y-76170885D01*
X148961766Y-76589459D01*
X149213473Y-76966165D01*
X149533835Y-77286527D01*
X149910541Y-77538234D01*
X150329115Y-77711613D01*
X150773470Y-77800000D01*
X151226530Y-77800000D01*
X151670885Y-77711613D01*
X152089459Y-77538234D01*
X152466165Y-77286527D01*
X152786527Y-76966165D01*
X153036638Y-76591848D01*
X153050026Y-79439009D01*
X153038234Y-79410541D01*
X152786527Y-79033835D01*
X152466165Y-78713473D01*
X152089459Y-78461766D01*
X151670885Y-78288387D01*
X151226530Y-78200000D01*
X150773470Y-78200000D01*
X150329115Y-78288387D01*
X149910541Y-78461766D01*
X149533835Y-78713473D01*
X149213473Y-79033835D01*
X148961766Y-79410541D01*
X148788387Y-79829115D01*
X148700000Y-80273470D01*
X148700000Y-80726530D01*
X148788387Y-81170885D01*
X148961766Y-81589459D01*
X149213473Y-81966165D01*
X149533835Y-82286527D01*
X149910541Y-82538234D01*
X150329115Y-82711613D01*
X150773470Y-82800000D01*
X151226530Y-82800000D01*
X151670885Y-82711613D01*
X152089459Y-82538234D01*
X152466165Y-82286527D01*
X152786527Y-81966165D01*
X153038234Y-81589459D01*
X153059892Y-81537172D01*
X153069023Y-83479005D01*
X153051899Y-83686251D01*
X153000206Y-83883167D01*
X152915151Y-84068136D01*
X152861376Y-84145854D01*
X152786527Y-84033835D01*
X152466165Y-83713473D01*
X152089459Y-83461766D01*
X151670885Y-83288387D01*
X151226530Y-83200000D01*
X150773470Y-83200000D01*
X150329115Y-83288387D01*
X149910541Y-83461766D01*
X149533835Y-83713473D01*
X149213473Y-84033835D01*
X148961766Y-84410541D01*
X148850096Y-84680136D01*
X148151919Y-84685001D01*
X148038234Y-84410541D01*
X147786527Y-84033835D01*
X147466165Y-83713473D01*
X147089459Y-83461766D01*
X146670885Y-83288387D01*
X146226530Y-83200000D01*
X145773470Y-83200000D01*
X145329115Y-83288387D01*
X144910541Y-83461766D01*
X144533835Y-83713473D01*
X144213473Y-84033835D01*
X143961766Y-84410541D01*
X143835622Y-84715080D01*
X143166310Y-84719744D01*
X143038234Y-84410541D01*
X142786527Y-84033835D01*
X142466165Y-83713473D01*
X142089459Y-83461766D01*
X141670885Y-83288387D01*
X141226530Y-83200000D01*
X140773470Y-83200000D01*
X140329115Y-83288387D01*
X139910541Y-83461766D01*
X139533835Y-83713473D01*
X139213473Y-84033835D01*
X139109346Y-84189673D01*
X139085959Y-84156343D01*
X138999282Y-83970412D01*
X138946423Y-83772196D01*
X138928635Y-83563401D01*
X138934398Y-81523387D01*
X138961766Y-81589459D01*
X139213473Y-81966165D01*
X139533835Y-82286527D01*
X139910541Y-82538234D01*
X140329115Y-82711613D01*
X140773470Y-82800000D01*
X141226530Y-82800000D01*
X141670885Y-82711613D01*
X142089459Y-82538234D01*
X142394058Y-82334707D01*
X144472885Y-82334707D01*
X144704933Y-82652541D01*
X145149756Y-82863835D01*
X145627255Y-82984289D01*
X146119078Y-83009273D01*
X146606325Y-82937828D01*
X147070271Y-82772698D01*
X147295067Y-82652541D01*
X147527115Y-82334707D01*
X146000000Y-80807591D01*
X144472885Y-82334707D01*
X142394058Y-82334707D01*
X142466165Y-82286527D01*
X142786527Y-81966165D01*
X143038234Y-81589459D01*
X143211613Y-81170885D01*
X143300000Y-80726530D01*
X143300000Y-80619078D01*
X143490727Y-80619078D01*
X143562172Y-81106325D01*
X143727302Y-81570271D01*
X143847459Y-81795067D01*
X144165293Y-82027115D01*
X145692409Y-80500000D01*
X146307591Y-80500000D01*
X147834707Y-82027115D01*
X148152541Y-81795067D01*
X148363835Y-81350244D01*
X148484289Y-80872745D01*
X148509273Y-80380922D01*
X148437828Y-79893675D01*
X148272698Y-79429729D01*
X148152541Y-79204933D01*
X147834707Y-78972885D01*
X146307591Y-80500000D01*
X145692409Y-80500000D01*
X144165293Y-78972885D01*
X143847459Y-79204933D01*
X143636165Y-79649756D01*
X143515711Y-80127255D01*
X143490727Y-80619078D01*
X143300000Y-80619078D01*
X143300000Y-80273470D01*
X143211613Y-79829115D01*
X143038234Y-79410541D01*
X142786527Y-79033835D01*
X142466165Y-78713473D01*
X142394059Y-78665293D01*
X144472885Y-78665293D01*
X146000000Y-80192409D01*
X147527115Y-78665293D01*
X147295067Y-78347459D01*
X146850244Y-78136165D01*
X146372745Y-78015711D01*
X145880922Y-77990727D01*
X145393675Y-78062172D01*
X144929729Y-78227302D01*
X144704933Y-78347459D01*
X144472885Y-78665293D01*
X142394059Y-78665293D01*
X142089459Y-78461766D01*
X141670885Y-78288387D01*
X141226530Y-78200000D01*
X140773470Y-78200000D01*
X140329115Y-78288387D01*
X139910541Y-78461766D01*
X139533835Y-78713473D01*
X139213473Y-79033835D01*
X138961766Y-79410541D01*
X138940220Y-79462558D01*
X138946411Y-77271049D01*
X138965081Y-77064003D01*
X139018215Y-76867554D01*
X139071556Y-76753771D01*
X139213473Y-76966165D01*
X139533835Y-77286527D01*
X139910541Y-77538234D01*
X140329115Y-77711613D01*
X140773470Y-77800000D01*
X141226530Y-77800000D01*
X141670885Y-77711613D01*
X142089459Y-77538234D01*
X142466165Y-77286527D01*
X142786527Y-76966165D01*
X143038234Y-76589459D01*
X143211613Y-76170885D01*
X143225713Y-76100000D01*
X143774287Y-76100000D01*
X143788387Y-76170885D01*
X143961766Y-76589459D01*
X144213473Y-76966165D01*
X144533835Y-77286527D01*
X144910541Y-77538234D01*
X145329115Y-77711613D01*
X145773470Y-77800000D01*
X146226530Y-77800000D01*
X146670885Y-77711613D01*
X147089459Y-77538234D01*
X147466165Y-77286527D01*
X147786527Y-76966165D01*
X148038234Y-76589459D01*
X148211613Y-76170885D01*
X148300000Y-75726530D01*
X148300000Y-75273470D01*
X148211613Y-74829115D01*
X148038234Y-74410541D01*
X147786527Y-74033835D01*
X147466165Y-73713473D01*
X147089459Y-73461766D01*
X146670885Y-73288387D01*
X146226530Y-73200000D01*
X145773470Y-73200000D01*
X145700000Y-73214614D01*
X145700000Y-71018237D01*
X145749116Y-70944729D01*
X145799434Y-70823251D01*
X145988055Y-70823251D01*
X146095259Y-71065213D01*
X146247608Y-71281612D01*
X146439247Y-71464131D01*
X146662811Y-71605756D01*
X146846750Y-71681936D01*
X147052500Y-71605537D01*
X147052500Y-70617500D01*
X147487500Y-70617500D01*
X147487500Y-71605537D01*
X147693250Y-71681936D01*
X147877189Y-71605756D01*
X148100753Y-71464131D01*
X148292392Y-71281612D01*
X148444741Y-71065213D01*
X148551945Y-70823251D01*
X148477373Y-70617500D01*
X147487500Y-70617500D01*
X147052500Y-70617500D01*
X146062627Y-70617500D01*
X145988055Y-70823251D01*
X145799434Y-70823251D01*
X145835806Y-70735443D01*
X145880000Y-70513265D01*
X145880000Y-70286735D01*
X148660000Y-70286735D01*
X148660000Y-70513265D01*
X148704194Y-70735443D01*
X148790884Y-70944729D01*
X148916737Y-71133082D01*
X149076918Y-71293263D01*
X149265271Y-71419116D01*
X149474557Y-71505806D01*
X149696735Y-71550000D01*
X149923265Y-71550000D01*
X150145443Y-71505806D01*
X150354729Y-71419116D01*
X150543082Y-71293263D01*
X150703263Y-71133082D01*
X150829116Y-70944729D01*
X150915806Y-70735443D01*
X150960000Y-70513265D01*
X150960000Y-70286735D01*
X150915806Y-70064557D01*
X150829116Y-69855271D01*
X150703263Y-69666918D01*
X150543082Y-69506737D01*
X150354729Y-69380884D01*
X150145443Y-69294194D01*
X149923265Y-69250000D01*
X149696735Y-69250000D01*
X149474557Y-69294194D01*
X149265271Y-69380884D01*
X149076918Y-69506737D01*
X148916737Y-69666918D01*
X148790884Y-69855271D01*
X148704194Y-70064557D01*
X148660000Y-70286735D01*
X145880000Y-70286735D01*
X145835806Y-70064557D01*
X145749116Y-69855271D01*
X145729238Y-69825522D01*
X145770919Y-69669966D01*
X145857082Y-69485190D01*
X145974020Y-69318186D01*
X146118186Y-69174020D01*
X146188193Y-69125000D01*
X146830003Y-69125000D01*
X146662811Y-69194244D01*
%TA.AperFunction,Conductor*%
D15*
G36*
X146662811Y-69194244D02*
G01*
X146439247Y-69335869D01*
X146247608Y-69518388D01*
X146095259Y-69734787D01*
X145988055Y-69976749D01*
X146062627Y-70182500D01*
X147052500Y-70182500D01*
X147052500Y-70162500D01*
X147487500Y-70162500D01*
X147487500Y-70182500D01*
X148477373Y-70182500D01*
X148551945Y-69976749D01*
X148444741Y-69734787D01*
X148292392Y-69518388D01*
X148100753Y-69335869D01*
X147877189Y-69194244D01*
X147709997Y-69125000D01*
X152517870Y-69125000D01*
X152585902Y-69172451D01*
X152724454Y-69310353D01*
X152685443Y-69294194D01*
X152463265Y-69250000D01*
X152236735Y-69250000D01*
X152014557Y-69294194D01*
X151805271Y-69380884D01*
X151616918Y-69506737D01*
X151456737Y-69666918D01*
X151330884Y-69855271D01*
X151244194Y-70064557D01*
X151200000Y-70286735D01*
X151200000Y-70513265D01*
X151244194Y-70735443D01*
X151330884Y-70944729D01*
X151456737Y-71133082D01*
X151616918Y-71293263D01*
X151805271Y-71419116D01*
X152014557Y-71505806D01*
X152236735Y-71550000D01*
X152282500Y-71550000D01*
X152282501Y-73344222D01*
X152134717Y-73492006D01*
X152089459Y-73461766D01*
X151670885Y-73288387D01*
X151226530Y-73200000D01*
X150773470Y-73200000D01*
X150329115Y-73288387D01*
X149910541Y-73461766D01*
X149533835Y-73713473D01*
X149213473Y-74033835D01*
X148961766Y-74410541D01*
X148788387Y-74829115D01*
X148700000Y-75273470D01*
X148700000Y-75726530D01*
X148788387Y-76170885D01*
X148961766Y-76589459D01*
X149213473Y-76966165D01*
X149533835Y-77286527D01*
X149910541Y-77538234D01*
X150329115Y-77711613D01*
X150773470Y-77800000D01*
X151226530Y-77800000D01*
X151670885Y-77711613D01*
X152089459Y-77538234D01*
X152466165Y-77286527D01*
X152786527Y-76966165D01*
X153036638Y-76591848D01*
X153050026Y-79439009D01*
X153038234Y-79410541D01*
X152786527Y-79033835D01*
X152466165Y-78713473D01*
X152089459Y-78461766D01*
X151670885Y-78288387D01*
X151226530Y-78200000D01*
X150773470Y-78200000D01*
X150329115Y-78288387D01*
X149910541Y-78461766D01*
X149533835Y-78713473D01*
X149213473Y-79033835D01*
X148961766Y-79410541D01*
X148788387Y-79829115D01*
X148700000Y-80273470D01*
X148700000Y-80726530D01*
X148788387Y-81170885D01*
X148961766Y-81589459D01*
X149213473Y-81966165D01*
X149533835Y-82286527D01*
X149910541Y-82538234D01*
X150329115Y-82711613D01*
X150773470Y-82800000D01*
X151226530Y-82800000D01*
X151670885Y-82711613D01*
X152089459Y-82538234D01*
X152466165Y-82286527D01*
X152786527Y-81966165D01*
X153038234Y-81589459D01*
X153059892Y-81537172D01*
X153069023Y-83479005D01*
X153051899Y-83686251D01*
X153000206Y-83883167D01*
X152915151Y-84068136D01*
X152861376Y-84145854D01*
X152786527Y-84033835D01*
X152466165Y-83713473D01*
X152089459Y-83461766D01*
X151670885Y-83288387D01*
X151226530Y-83200000D01*
X150773470Y-83200000D01*
X150329115Y-83288387D01*
X149910541Y-83461766D01*
X149533835Y-83713473D01*
X149213473Y-84033835D01*
X148961766Y-84410541D01*
X148850096Y-84680136D01*
X148151919Y-84685001D01*
X148038234Y-84410541D01*
X147786527Y-84033835D01*
X147466165Y-83713473D01*
X147089459Y-83461766D01*
X146670885Y-83288387D01*
X146226530Y-83200000D01*
X145773470Y-83200000D01*
X145329115Y-83288387D01*
X144910541Y-83461766D01*
X144533835Y-83713473D01*
X144213473Y-84033835D01*
X143961766Y-84410541D01*
X143835622Y-84715080D01*
X143166310Y-84719744D01*
X143038234Y-84410541D01*
X142786527Y-84033835D01*
X142466165Y-83713473D01*
X142089459Y-83461766D01*
X141670885Y-83288387D01*
X141226530Y-83200000D01*
X140773470Y-83200000D01*
X140329115Y-83288387D01*
X139910541Y-83461766D01*
X139533835Y-83713473D01*
X139213473Y-84033835D01*
X139109346Y-84189673D01*
X139085959Y-84156343D01*
X138999282Y-83970412D01*
X138946423Y-83772196D01*
X138928635Y-83563401D01*
X138934398Y-81523387D01*
X138961766Y-81589459D01*
X139213473Y-81966165D01*
X139533835Y-82286527D01*
X139910541Y-82538234D01*
X140329115Y-82711613D01*
X140773470Y-82800000D01*
X141226530Y-82800000D01*
X141670885Y-82711613D01*
X142089459Y-82538234D01*
X142394058Y-82334707D01*
X144472885Y-82334707D01*
X144704933Y-82652541D01*
X145149756Y-82863835D01*
X145627255Y-82984289D01*
X146119078Y-83009273D01*
X146606325Y-82937828D01*
X147070271Y-82772698D01*
X147295067Y-82652541D01*
X147527115Y-82334707D01*
X146000000Y-80807591D01*
X144472885Y-82334707D01*
X142394058Y-82334707D01*
X142466165Y-82286527D01*
X142786527Y-81966165D01*
X143038234Y-81589459D01*
X143211613Y-81170885D01*
X143300000Y-80726530D01*
X143300000Y-80619078D01*
X143490727Y-80619078D01*
X143562172Y-81106325D01*
X143727302Y-81570271D01*
X143847459Y-81795067D01*
X144165293Y-82027115D01*
X145692409Y-80500000D01*
X146307591Y-80500000D01*
X147834707Y-82027115D01*
X148152541Y-81795067D01*
X148363835Y-81350244D01*
X148484289Y-80872745D01*
X148509273Y-80380922D01*
X148437828Y-79893675D01*
X148272698Y-79429729D01*
X148152541Y-79204933D01*
X147834707Y-78972885D01*
X146307591Y-80500000D01*
X145692409Y-80500000D01*
X144165293Y-78972885D01*
X143847459Y-79204933D01*
X143636165Y-79649756D01*
X143515711Y-80127255D01*
X143490727Y-80619078D01*
X143300000Y-80619078D01*
X143300000Y-80273470D01*
X143211613Y-79829115D01*
X143038234Y-79410541D01*
X142786527Y-79033835D01*
X142466165Y-78713473D01*
X142394059Y-78665293D01*
X144472885Y-78665293D01*
X146000000Y-80192409D01*
X147527115Y-78665293D01*
X147295067Y-78347459D01*
X146850244Y-78136165D01*
X146372745Y-78015711D01*
X145880922Y-77990727D01*
X145393675Y-78062172D01*
X144929729Y-78227302D01*
X144704933Y-78347459D01*
X144472885Y-78665293D01*
X142394059Y-78665293D01*
X142089459Y-78461766D01*
X141670885Y-78288387D01*
X141226530Y-78200000D01*
X140773470Y-78200000D01*
X140329115Y-78288387D01*
X139910541Y-78461766D01*
X139533835Y-78713473D01*
X139213473Y-79033835D01*
X138961766Y-79410541D01*
X138940220Y-79462558D01*
X138946411Y-77271049D01*
X138965081Y-77064003D01*
X139018215Y-76867554D01*
X139071556Y-76753771D01*
X139213473Y-76966165D01*
X139533835Y-77286527D01*
X139910541Y-77538234D01*
X140329115Y-77711613D01*
X140773470Y-77800000D01*
X141226530Y-77800000D01*
X141670885Y-77711613D01*
X142089459Y-77538234D01*
X142466165Y-77286527D01*
X142786527Y-76966165D01*
X143038234Y-76589459D01*
X143211613Y-76170885D01*
X143225713Y-76100000D01*
X143774287Y-76100000D01*
X143788387Y-76170885D01*
X143961766Y-76589459D01*
X144213473Y-76966165D01*
X144533835Y-77286527D01*
X144910541Y-77538234D01*
X145329115Y-77711613D01*
X145773470Y-77800000D01*
X146226530Y-77800000D01*
X146670885Y-77711613D01*
X147089459Y-77538234D01*
X147466165Y-77286527D01*
X147786527Y-76966165D01*
X148038234Y-76589459D01*
X148211613Y-76170885D01*
X148300000Y-75726530D01*
X148300000Y-75273470D01*
X148211613Y-74829115D01*
X148038234Y-74410541D01*
X147786527Y-74033835D01*
X147466165Y-73713473D01*
X147089459Y-73461766D01*
X146670885Y-73288387D01*
X146226530Y-73200000D01*
X145773470Y-73200000D01*
X145700000Y-73214614D01*
X145700000Y-71018237D01*
X145749116Y-70944729D01*
X145799434Y-70823251D01*
X145988055Y-70823251D01*
X146095259Y-71065213D01*
X146247608Y-71281612D01*
X146439247Y-71464131D01*
X146662811Y-71605756D01*
X146846750Y-71681936D01*
X147052500Y-71605537D01*
X147052500Y-70617500D01*
X147487500Y-70617500D01*
X147487500Y-71605537D01*
X147693250Y-71681936D01*
X147877189Y-71605756D01*
X148100753Y-71464131D01*
X148292392Y-71281612D01*
X148444741Y-71065213D01*
X148551945Y-70823251D01*
X148477373Y-70617500D01*
X147487500Y-70617500D01*
X147052500Y-70617500D01*
X146062627Y-70617500D01*
X145988055Y-70823251D01*
X145799434Y-70823251D01*
X145835806Y-70735443D01*
X145880000Y-70513265D01*
X145880000Y-70286735D01*
X148660000Y-70286735D01*
X148660000Y-70513265D01*
X148704194Y-70735443D01*
X148790884Y-70944729D01*
X148916737Y-71133082D01*
X149076918Y-71293263D01*
X149265271Y-71419116D01*
X149474557Y-71505806D01*
X149696735Y-71550000D01*
X149923265Y-71550000D01*
X150145443Y-71505806D01*
X150354729Y-71419116D01*
X150543082Y-71293263D01*
X150703263Y-71133082D01*
X150829116Y-70944729D01*
X150915806Y-70735443D01*
X150960000Y-70513265D01*
X150960000Y-70286735D01*
X150915806Y-70064557D01*
X150829116Y-69855271D01*
X150703263Y-69666918D01*
X150543082Y-69506737D01*
X150354729Y-69380884D01*
X150145443Y-69294194D01*
X149923265Y-69250000D01*
X149696735Y-69250000D01*
X149474557Y-69294194D01*
X149265271Y-69380884D01*
X149076918Y-69506737D01*
X148916737Y-69666918D01*
X148790884Y-69855271D01*
X148704194Y-70064557D01*
X148660000Y-70286735D01*
X145880000Y-70286735D01*
X145835806Y-70064557D01*
X145749116Y-69855271D01*
X145729238Y-69825522D01*
X145770919Y-69669966D01*
X145857082Y-69485190D01*
X145974020Y-69318186D01*
X146118186Y-69174020D01*
X146188193Y-69125000D01*
X146830003Y-69125000D01*
X146662811Y-69194244D01*
G37*
%TD.AperFunction*%
%TD*%
M02*
