%TF.GenerationSoftware,KiCad,Pcbnew,(5.1.10)-1*%
%TF.CreationDate,2021-10-10T15:08:46-03:00*%
%TF.ProjectId,footSwitchBoard,666f6f74-5377-4697-9463-68426f617264,rev?*%
%TF.SameCoordinates,Original*%
%TF.FileFunction,Copper,L1,Top*%
%TF.FilePolarity,Positive*%
%FSLAX46Y46*%
G04 Gerber Fmt 4.6, Leading zero omitted, Abs format (unit mm)*
G04 Created by KiCad (PCBNEW (5.1.10)-1) date 2021-10-10 15:08:46*
%MOMM*%
%LPD*%
G01*
G04 APERTURE LIST*
%TA.AperFunction,ComponentPad*%
%ADD10O,1.700000X1.700000*%
%TD*%
%TA.AperFunction,ComponentPad*%
%ADD11R,1.700000X1.700000*%
%TD*%
%TA.AperFunction,ComponentPad*%
%ADD12C,4.000000*%
%TD*%
%TA.AperFunction,Conductor*%
%ADD13C,0.200000*%
%TD*%
%TA.AperFunction,Conductor*%
%ADD14C,0.100000*%
%TD*%
G04 APERTURE END LIST*
D10*
%TO.P,J1,4*%
%TO.N,/RTN*%
X144730000Y-70400000D03*
%TO.P,J1,6*%
%TO.N,/LED+*%
X149810000Y-70400000D03*
%TO.P,J1,7*%
%TO.N,/V+*%
X152350000Y-70400000D03*
%TO.P,J1,3*%
%TO.N,/SND*%
X142190000Y-70400000D03*
%TO.P,J1,5*%
%TO.N,/OUT*%
X147270000Y-70400000D03*
%TO.P,J1,8*%
%TO.N,Earth*%
X154890000Y-70400000D03*
D11*
%TO.P,J1,1*%
X137110000Y-70400000D03*
D10*
%TO.P,J1,2*%
%TO.N,/IN*%
X139650000Y-70400000D03*
%TD*%
D12*
%TO.P,SW1,5*%
%TO.N,/OUT*%
X146000000Y-80500000D03*
%TO.P,SW1,1*%
%TO.N,/IN*%
X141000000Y-75500000D03*
%TO.P,SW1,2*%
%TO.N,/SND*%
X141000000Y-80500000D03*
%TO.P,SW1,4*%
%TO.N,/RTN*%
X146000000Y-75500000D03*
%TO.P,SW1,7*%
%TO.N,/V+*%
X151000000Y-75500000D03*
%TO.P,SW1,8*%
%TO.N,/LED+*%
X151000000Y-80500000D03*
%TO.P,SW1,3*%
%TO.N,Earth*%
X141000000Y-85500000D03*
%TO.P,SW1,9*%
X151000000Y-85500000D03*
%TO.P,SW1,6*%
%TO.N,/IN*%
X146000000Y-85500000D03*
%TD*%
D13*
%TO.N,/IN*%
X139042811Y-69194244D02*
X138819247Y-69335869D01*
X138627608Y-69518388D01*
X138475259Y-69734787D01*
X138368055Y-69976749D01*
X138442627Y-70182500D01*
X139432500Y-70182500D01*
X139432500Y-70162500D01*
X139867500Y-70162500D01*
X139867500Y-70182500D01*
X140857373Y-70182500D01*
X140931945Y-69976749D01*
X140824741Y-69734787D01*
X140672392Y-69518388D01*
X140480753Y-69335869D01*
X140257189Y-69194244D01*
X140089997Y-69125000D01*
X140811807Y-69125000D01*
X140881814Y-69174020D01*
X141025980Y-69318186D01*
X141142918Y-69485190D01*
X141229081Y-69669966D01*
X141247863Y-69740063D01*
X141170884Y-69855271D01*
X141084194Y-70064557D01*
X141040000Y-70286735D01*
X141040000Y-70513265D01*
X141084194Y-70735443D01*
X141170884Y-70944729D01*
X141296737Y-71133082D01*
X141300000Y-71136345D01*
X141300000Y-73012016D01*
X140880922Y-72990727D01*
X140393675Y-73062172D01*
X139929729Y-73227302D01*
X139704933Y-73347459D01*
X139472885Y-73665293D01*
X141000000Y-75192409D01*
X141014143Y-75178267D01*
X141300000Y-75464124D01*
X141300000Y-75535876D01*
X141014143Y-75821734D01*
X141000000Y-75807591D01*
X139472885Y-77334707D01*
X139704933Y-77652541D01*
X140149756Y-77863835D01*
X140471052Y-77944885D01*
X140333097Y-77981850D01*
X140125639Y-78000000D01*
X139796734Y-78000000D01*
X139787903Y-78000391D01*
X139564476Y-78020199D01*
X139547090Y-78023306D01*
X139330632Y-78082112D01*
X139314064Y-78088229D01*
X139111328Y-78184198D01*
X139096094Y-78193135D01*
X138913403Y-78323275D01*
X138899979Y-78334753D01*
X138743033Y-78495003D01*
X138731837Y-78508663D01*
X138605531Y-78694024D01*
X138596914Y-78709440D01*
X138505188Y-78914131D01*
X138499417Y-78930823D01*
X138445132Y-79148459D01*
X138442387Y-79165907D01*
X138427237Y-79389699D01*
X138427031Y-79398536D01*
X138474115Y-81658536D01*
X138474664Y-81667127D01*
X138497980Y-81884326D01*
X138501280Y-81901206D01*
X138561472Y-82111197D01*
X138567616Y-82127264D01*
X138662904Y-82323833D01*
X138671711Y-82338608D01*
X138799275Y-82515940D01*
X138810483Y-82528987D01*
X138966549Y-82681835D01*
X138979827Y-82692769D01*
X139159777Y-82816612D01*
X139174733Y-82825109D01*
X139373245Y-82916281D01*
X139389434Y-82922089D01*
X139600632Y-82977895D01*
X139617579Y-82980842D01*
X139835217Y-82999629D01*
X139843817Y-83000000D01*
X145225639Y-83000000D01*
X145433097Y-83018150D01*
X145525339Y-83042866D01*
X145393675Y-83062172D01*
X144929729Y-83227302D01*
X144704933Y-83347459D01*
X144472885Y-83665293D01*
X146000000Y-85192409D01*
X146014143Y-85178267D01*
X146321734Y-85485858D01*
X146307591Y-85500000D01*
X146321734Y-85514143D01*
X146014143Y-85821734D01*
X146000000Y-85807591D01*
X144472885Y-87334707D01*
X144704933Y-87652541D01*
X145149756Y-87863835D01*
X145627255Y-87984289D01*
X146119078Y-88009273D01*
X146400000Y-87968081D01*
X146400000Y-88225639D01*
X146381850Y-88433097D01*
X146329081Y-88630034D01*
X146242918Y-88814810D01*
X146125980Y-88981814D01*
X145981814Y-89125980D01*
X145911807Y-89175000D01*
X136088193Y-89175000D01*
X136018186Y-89125980D01*
X135874020Y-88981814D01*
X135825000Y-88911807D01*
X135825000Y-85273470D01*
X138700000Y-85273470D01*
X138700000Y-85726530D01*
X138788387Y-86170885D01*
X138961766Y-86589459D01*
X139213473Y-86966165D01*
X139533835Y-87286527D01*
X139910541Y-87538234D01*
X140329115Y-87711613D01*
X140773470Y-87800000D01*
X141226530Y-87800000D01*
X141670885Y-87711613D01*
X142089459Y-87538234D01*
X142466165Y-87286527D01*
X142786527Y-86966165D01*
X143038234Y-86589459D01*
X143211613Y-86170885D01*
X143300000Y-85726530D01*
X143300000Y-85619078D01*
X143490727Y-85619078D01*
X143562172Y-86106325D01*
X143727302Y-86570271D01*
X143847459Y-86795067D01*
X144165293Y-87027115D01*
X145692409Y-85500000D01*
X144165293Y-83972885D01*
X143847459Y-84204933D01*
X143636165Y-84649756D01*
X143515711Y-85127255D01*
X143490727Y-85619078D01*
X143300000Y-85619078D01*
X143300000Y-85273470D01*
X143211613Y-84829115D01*
X143038234Y-84410541D01*
X142786527Y-84033835D01*
X142466165Y-83713473D01*
X142089459Y-83461766D01*
X141670885Y-83288387D01*
X141226530Y-83200000D01*
X140773470Y-83200000D01*
X140329115Y-83288387D01*
X139910541Y-83461766D01*
X139533835Y-83713473D01*
X139213473Y-84033835D01*
X138961766Y-84410541D01*
X138788387Y-84829115D01*
X138700000Y-85273470D01*
X135825000Y-85273470D01*
X135825000Y-75619078D01*
X138490727Y-75619078D01*
X138562172Y-76106325D01*
X138727302Y-76570271D01*
X138847459Y-76795067D01*
X139165293Y-77027115D01*
X140692409Y-75500000D01*
X139165293Y-73972885D01*
X138847459Y-74204933D01*
X138636165Y-74649756D01*
X138515711Y-75127255D01*
X138490727Y-75619078D01*
X135825000Y-75619078D01*
X135825000Y-69550000D01*
X135958549Y-69550000D01*
X135958549Y-71250000D01*
X135964341Y-71308810D01*
X135981496Y-71365360D01*
X136009353Y-71417477D01*
X136046842Y-71463158D01*
X136092523Y-71500647D01*
X136144640Y-71528504D01*
X136201190Y-71545659D01*
X136260000Y-71551451D01*
X137960000Y-71551451D01*
X138018810Y-71545659D01*
X138075360Y-71528504D01*
X138127477Y-71500647D01*
X138173158Y-71463158D01*
X138210647Y-71417477D01*
X138238504Y-71365360D01*
X138255659Y-71308810D01*
X138261451Y-71250000D01*
X138261451Y-70823251D01*
X138368055Y-70823251D01*
X138475259Y-71065213D01*
X138627608Y-71281612D01*
X138819247Y-71464131D01*
X139042811Y-71605756D01*
X139226750Y-71681936D01*
X139432500Y-71605537D01*
X139432500Y-70617500D01*
X139867500Y-70617500D01*
X139867500Y-71605537D01*
X140073250Y-71681936D01*
X140257189Y-71605756D01*
X140480753Y-71464131D01*
X140672392Y-71281612D01*
X140824741Y-71065213D01*
X140931945Y-70823251D01*
X140857373Y-70617500D01*
X139867500Y-70617500D01*
X139432500Y-70617500D01*
X138442627Y-70617500D01*
X138368055Y-70823251D01*
X138261451Y-70823251D01*
X138261451Y-69550000D01*
X138255659Y-69491190D01*
X138238504Y-69434640D01*
X138210647Y-69382523D01*
X138173158Y-69336842D01*
X138127477Y-69299353D01*
X138075360Y-69271496D01*
X138018810Y-69254341D01*
X137960000Y-69248549D01*
X136260000Y-69248549D01*
X136201190Y-69254341D01*
X136144640Y-69271496D01*
X136092523Y-69299353D01*
X136046842Y-69336842D01*
X136009353Y-69382523D01*
X135981496Y-69434640D01*
X135964341Y-69491190D01*
X135958549Y-69550000D01*
X135825000Y-69550000D01*
X135825000Y-69388193D01*
X135874020Y-69318186D01*
X136018186Y-69174020D01*
X136088193Y-69125000D01*
X139210003Y-69125000D01*
X139042811Y-69194244D01*
%TA.AperFunction,Conductor*%
D14*
G36*
X139042811Y-69194244D02*
G01*
X138819247Y-69335869D01*
X138627608Y-69518388D01*
X138475259Y-69734787D01*
X138368055Y-69976749D01*
X138442627Y-70182500D01*
X139432500Y-70182500D01*
X139432500Y-70162500D01*
X139867500Y-70162500D01*
X139867500Y-70182500D01*
X140857373Y-70182500D01*
X140931945Y-69976749D01*
X140824741Y-69734787D01*
X140672392Y-69518388D01*
X140480753Y-69335869D01*
X140257189Y-69194244D01*
X140089997Y-69125000D01*
X140811807Y-69125000D01*
X140881814Y-69174020D01*
X141025980Y-69318186D01*
X141142918Y-69485190D01*
X141229081Y-69669966D01*
X141247863Y-69740063D01*
X141170884Y-69855271D01*
X141084194Y-70064557D01*
X141040000Y-70286735D01*
X141040000Y-70513265D01*
X141084194Y-70735443D01*
X141170884Y-70944729D01*
X141296737Y-71133082D01*
X141300000Y-71136345D01*
X141300000Y-73012016D01*
X140880922Y-72990727D01*
X140393675Y-73062172D01*
X139929729Y-73227302D01*
X139704933Y-73347459D01*
X139472885Y-73665293D01*
X141000000Y-75192409D01*
X141014143Y-75178267D01*
X141300000Y-75464124D01*
X141300000Y-75535876D01*
X141014143Y-75821734D01*
X141000000Y-75807591D01*
X139472885Y-77334707D01*
X139704933Y-77652541D01*
X140149756Y-77863835D01*
X140471052Y-77944885D01*
X140333097Y-77981850D01*
X140125639Y-78000000D01*
X139796734Y-78000000D01*
X139787903Y-78000391D01*
X139564476Y-78020199D01*
X139547090Y-78023306D01*
X139330632Y-78082112D01*
X139314064Y-78088229D01*
X139111328Y-78184198D01*
X139096094Y-78193135D01*
X138913403Y-78323275D01*
X138899979Y-78334753D01*
X138743033Y-78495003D01*
X138731837Y-78508663D01*
X138605531Y-78694024D01*
X138596914Y-78709440D01*
X138505188Y-78914131D01*
X138499417Y-78930823D01*
X138445132Y-79148459D01*
X138442387Y-79165907D01*
X138427237Y-79389699D01*
X138427031Y-79398536D01*
X138474115Y-81658536D01*
X138474664Y-81667127D01*
X138497980Y-81884326D01*
X138501280Y-81901206D01*
X138561472Y-82111197D01*
X138567616Y-82127264D01*
X138662904Y-82323833D01*
X138671711Y-82338608D01*
X138799275Y-82515940D01*
X138810483Y-82528987D01*
X138966549Y-82681835D01*
X138979827Y-82692769D01*
X139159777Y-82816612D01*
X139174733Y-82825109D01*
X139373245Y-82916281D01*
X139389434Y-82922089D01*
X139600632Y-82977895D01*
X139617579Y-82980842D01*
X139835217Y-82999629D01*
X139843817Y-83000000D01*
X145225639Y-83000000D01*
X145433097Y-83018150D01*
X145525339Y-83042866D01*
X145393675Y-83062172D01*
X144929729Y-83227302D01*
X144704933Y-83347459D01*
X144472885Y-83665293D01*
X146000000Y-85192409D01*
X146014143Y-85178267D01*
X146321734Y-85485858D01*
X146307591Y-85500000D01*
X146321734Y-85514143D01*
X146014143Y-85821734D01*
X146000000Y-85807591D01*
X144472885Y-87334707D01*
X144704933Y-87652541D01*
X145149756Y-87863835D01*
X145627255Y-87984289D01*
X146119078Y-88009273D01*
X146400000Y-87968081D01*
X146400000Y-88225639D01*
X146381850Y-88433097D01*
X146329081Y-88630034D01*
X146242918Y-88814810D01*
X146125980Y-88981814D01*
X145981814Y-89125980D01*
X145911807Y-89175000D01*
X136088193Y-89175000D01*
X136018186Y-89125980D01*
X135874020Y-88981814D01*
X135825000Y-88911807D01*
X135825000Y-85273470D01*
X138700000Y-85273470D01*
X138700000Y-85726530D01*
X138788387Y-86170885D01*
X138961766Y-86589459D01*
X139213473Y-86966165D01*
X139533835Y-87286527D01*
X139910541Y-87538234D01*
X140329115Y-87711613D01*
X140773470Y-87800000D01*
X141226530Y-87800000D01*
X141670885Y-87711613D01*
X142089459Y-87538234D01*
X142466165Y-87286527D01*
X142786527Y-86966165D01*
X143038234Y-86589459D01*
X143211613Y-86170885D01*
X143300000Y-85726530D01*
X143300000Y-85619078D01*
X143490727Y-85619078D01*
X143562172Y-86106325D01*
X143727302Y-86570271D01*
X143847459Y-86795067D01*
X144165293Y-87027115D01*
X145692409Y-85500000D01*
X144165293Y-83972885D01*
X143847459Y-84204933D01*
X143636165Y-84649756D01*
X143515711Y-85127255D01*
X143490727Y-85619078D01*
X143300000Y-85619078D01*
X143300000Y-85273470D01*
X143211613Y-84829115D01*
X143038234Y-84410541D01*
X142786527Y-84033835D01*
X142466165Y-83713473D01*
X142089459Y-83461766D01*
X141670885Y-83288387D01*
X141226530Y-83200000D01*
X140773470Y-83200000D01*
X140329115Y-83288387D01*
X139910541Y-83461766D01*
X139533835Y-83713473D01*
X139213473Y-84033835D01*
X138961766Y-84410541D01*
X138788387Y-84829115D01*
X138700000Y-85273470D01*
X135825000Y-85273470D01*
X135825000Y-75619078D01*
X138490727Y-75619078D01*
X138562172Y-76106325D01*
X138727302Y-76570271D01*
X138847459Y-76795067D01*
X139165293Y-77027115D01*
X140692409Y-75500000D01*
X139165293Y-73972885D01*
X138847459Y-74204933D01*
X138636165Y-74649756D01*
X138515711Y-75127255D01*
X138490727Y-75619078D01*
X135825000Y-75619078D01*
X135825000Y-69550000D01*
X135958549Y-69550000D01*
X135958549Y-71250000D01*
X135964341Y-71308810D01*
X135981496Y-71365360D01*
X136009353Y-71417477D01*
X136046842Y-71463158D01*
X136092523Y-71500647D01*
X136144640Y-71528504D01*
X136201190Y-71545659D01*
X136260000Y-71551451D01*
X137960000Y-71551451D01*
X138018810Y-71545659D01*
X138075360Y-71528504D01*
X138127477Y-71500647D01*
X138173158Y-71463158D01*
X138210647Y-71417477D01*
X138238504Y-71365360D01*
X138255659Y-71308810D01*
X138261451Y-71250000D01*
X138261451Y-70823251D01*
X138368055Y-70823251D01*
X138475259Y-71065213D01*
X138627608Y-71281612D01*
X138819247Y-71464131D01*
X139042811Y-71605756D01*
X139226750Y-71681936D01*
X139432500Y-71605537D01*
X139432500Y-70617500D01*
X139867500Y-70617500D01*
X139867500Y-71605537D01*
X140073250Y-71681936D01*
X140257189Y-71605756D01*
X140480753Y-71464131D01*
X140672392Y-71281612D01*
X140824741Y-71065213D01*
X140931945Y-70823251D01*
X140857373Y-70617500D01*
X139867500Y-70617500D01*
X139432500Y-70617500D01*
X138442627Y-70617500D01*
X138368055Y-70823251D01*
X138261451Y-70823251D01*
X138261451Y-69550000D01*
X138255659Y-69491190D01*
X138238504Y-69434640D01*
X138210647Y-69382523D01*
X138173158Y-69336842D01*
X138127477Y-69299353D01*
X138075360Y-69271496D01*
X138018810Y-69254341D01*
X137960000Y-69248549D01*
X136260000Y-69248549D01*
X136201190Y-69254341D01*
X136144640Y-69271496D01*
X136092523Y-69299353D01*
X136046842Y-69336842D01*
X136009353Y-69382523D01*
X135981496Y-69434640D01*
X135964341Y-69491190D01*
X135958549Y-69550000D01*
X135825000Y-69550000D01*
X135825000Y-69388193D01*
X135874020Y-69318186D01*
X136018186Y-69174020D01*
X136088193Y-69125000D01*
X139210003Y-69125000D01*
X139042811Y-69194244D01*
G37*
%TD.AperFunction*%
%TD*%
D13*
%TO.N,/SND*%
X143321409Y-69178591D02*
X143439493Y-69322476D01*
X143527240Y-69486637D01*
X143581273Y-69664760D01*
X143600000Y-69854907D01*
X143600000Y-70186188D01*
X143580000Y-70286735D01*
X143580000Y-70513265D01*
X143600000Y-70613812D01*
X143600000Y-77650000D01*
X143600856Y-77663053D01*
X143619597Y-77805403D01*
X143626353Y-77830618D01*
X143681298Y-77963268D01*
X143694351Y-77985876D01*
X143781756Y-78099785D01*
X143800215Y-78118244D01*
X143914124Y-78205649D01*
X143936732Y-78218702D01*
X144069382Y-78273647D01*
X144094597Y-78280403D01*
X144366244Y-78316166D01*
X144474570Y-78361036D01*
X144567588Y-78432412D01*
X144638964Y-78525430D01*
X144677180Y-78617693D01*
X144533835Y-78713473D01*
X144213473Y-79033835D01*
X143961766Y-79410541D01*
X143788387Y-79829115D01*
X143700000Y-80273470D01*
X143700000Y-80726530D01*
X143788387Y-81170885D01*
X143961766Y-81589459D01*
X144213473Y-81966165D01*
X144427274Y-82179966D01*
X144425980Y-82181814D01*
X144281814Y-82325980D01*
X144114810Y-82442918D01*
X143930034Y-82529081D01*
X143733097Y-82581850D01*
X143525639Y-82600000D01*
X142333427Y-82600000D01*
X142527115Y-82334707D01*
X141000000Y-80807591D01*
X140985858Y-80821734D01*
X140678266Y-80514142D01*
X140692409Y-80500000D01*
X141307591Y-80500000D01*
X142834707Y-82027115D01*
X143152541Y-81795067D01*
X143363835Y-81350244D01*
X143484289Y-80872745D01*
X143509273Y-80380922D01*
X143437828Y-79893675D01*
X143272698Y-79429729D01*
X143152541Y-79204933D01*
X142834707Y-78972885D01*
X141307591Y-80500000D01*
X140692409Y-80500000D01*
X140678266Y-80485858D01*
X140985858Y-80178266D01*
X141000000Y-80192409D01*
X142527115Y-78665293D01*
X142295067Y-78347459D01*
X141850244Y-78136165D01*
X141372745Y-78015711D01*
X141279656Y-78010982D01*
X141373587Y-77917051D01*
X141384791Y-77903698D01*
X141494760Y-77746646D01*
X141670885Y-77711613D01*
X142089459Y-77538234D01*
X142466165Y-77286527D01*
X142786527Y-76966165D01*
X143038234Y-76589459D01*
X143211613Y-76170885D01*
X143300000Y-75726530D01*
X143300000Y-75273470D01*
X143211613Y-74829115D01*
X143038234Y-74410541D01*
X142786527Y-74033835D01*
X142466165Y-73713473D01*
X142089459Y-73461766D01*
X141700000Y-73300447D01*
X141700000Y-71654291D01*
X141766750Y-71681936D01*
X141972500Y-71605537D01*
X141972500Y-70617500D01*
X142407500Y-70617500D01*
X142407500Y-71605537D01*
X142613250Y-71681936D01*
X142797189Y-71605756D01*
X143020753Y-71464131D01*
X143212392Y-71281612D01*
X143364741Y-71065213D01*
X143471945Y-70823251D01*
X143397373Y-70617500D01*
X142407500Y-70617500D01*
X141972500Y-70617500D01*
X141952500Y-70617500D01*
X141952500Y-70182500D01*
X141972500Y-70182500D01*
X141972500Y-70162500D01*
X142407500Y-70162500D01*
X142407500Y-70182500D01*
X143397373Y-70182500D01*
X143471945Y-69976749D01*
X143364741Y-69734787D01*
X143212392Y-69518388D01*
X143020753Y-69335869D01*
X142797189Y-69194244D01*
X142629997Y-69125000D01*
X143256109Y-69125000D01*
X143321409Y-69178591D01*
%TA.AperFunction,Conductor*%
D14*
G36*
X143321409Y-69178591D02*
G01*
X143439493Y-69322476D01*
X143527240Y-69486637D01*
X143581273Y-69664760D01*
X143600000Y-69854907D01*
X143600000Y-70186188D01*
X143580000Y-70286735D01*
X143580000Y-70513265D01*
X143600000Y-70613812D01*
X143600000Y-77650000D01*
X143600856Y-77663053D01*
X143619597Y-77805403D01*
X143626353Y-77830618D01*
X143681298Y-77963268D01*
X143694351Y-77985876D01*
X143781756Y-78099785D01*
X143800215Y-78118244D01*
X143914124Y-78205649D01*
X143936732Y-78218702D01*
X144069382Y-78273647D01*
X144094597Y-78280403D01*
X144366244Y-78316166D01*
X144474570Y-78361036D01*
X144567588Y-78432412D01*
X144638964Y-78525430D01*
X144677180Y-78617693D01*
X144533835Y-78713473D01*
X144213473Y-79033835D01*
X143961766Y-79410541D01*
X143788387Y-79829115D01*
X143700000Y-80273470D01*
X143700000Y-80726530D01*
X143788387Y-81170885D01*
X143961766Y-81589459D01*
X144213473Y-81966165D01*
X144427274Y-82179966D01*
X144425980Y-82181814D01*
X144281814Y-82325980D01*
X144114810Y-82442918D01*
X143930034Y-82529081D01*
X143733097Y-82581850D01*
X143525639Y-82600000D01*
X142333427Y-82600000D01*
X142527115Y-82334707D01*
X141000000Y-80807591D01*
X140985858Y-80821734D01*
X140678266Y-80514142D01*
X140692409Y-80500000D01*
X141307591Y-80500000D01*
X142834707Y-82027115D01*
X143152541Y-81795067D01*
X143363835Y-81350244D01*
X143484289Y-80872745D01*
X143509273Y-80380922D01*
X143437828Y-79893675D01*
X143272698Y-79429729D01*
X143152541Y-79204933D01*
X142834707Y-78972885D01*
X141307591Y-80500000D01*
X140692409Y-80500000D01*
X140678266Y-80485858D01*
X140985858Y-80178266D01*
X141000000Y-80192409D01*
X142527115Y-78665293D01*
X142295067Y-78347459D01*
X141850244Y-78136165D01*
X141372745Y-78015711D01*
X141279656Y-78010982D01*
X141373587Y-77917051D01*
X141384791Y-77903698D01*
X141494760Y-77746646D01*
X141670885Y-77711613D01*
X142089459Y-77538234D01*
X142466165Y-77286527D01*
X142786527Y-76966165D01*
X143038234Y-76589459D01*
X143211613Y-76170885D01*
X143300000Y-75726530D01*
X143300000Y-75273470D01*
X143211613Y-74829115D01*
X143038234Y-74410541D01*
X142786527Y-74033835D01*
X142466165Y-73713473D01*
X142089459Y-73461766D01*
X141700000Y-73300447D01*
X141700000Y-71654291D01*
X141766750Y-71681936D01*
X141972500Y-71605537D01*
X141972500Y-70617500D01*
X142407500Y-70617500D01*
X142407500Y-71605537D01*
X142613250Y-71681936D01*
X142797189Y-71605756D01*
X143020753Y-71464131D01*
X143212392Y-71281612D01*
X143364741Y-71065213D01*
X143471945Y-70823251D01*
X143397373Y-70617500D01*
X142407500Y-70617500D01*
X141972500Y-70617500D01*
X141952500Y-70617500D01*
X141952500Y-70182500D01*
X141972500Y-70182500D01*
X141972500Y-70162500D01*
X142407500Y-70162500D01*
X142407500Y-70182500D01*
X143397373Y-70182500D01*
X143471945Y-69976749D01*
X143364741Y-69734787D01*
X143212392Y-69518388D01*
X143020753Y-69335869D01*
X142797189Y-69194244D01*
X142629997Y-69125000D01*
X143256109Y-69125000D01*
X143321409Y-69178591D01*
G37*
%TD.AperFunction*%
%TD*%
D13*
%TO.N,/RTN*%
X147781814Y-69174020D02*
X147925980Y-69318186D01*
X148042918Y-69485190D01*
X148096551Y-69600206D01*
X148003082Y-69506737D01*
X147814729Y-69380884D01*
X147605443Y-69294194D01*
X147383265Y-69250000D01*
X147156735Y-69250000D01*
X146934557Y-69294194D01*
X146725271Y-69380884D01*
X146536918Y-69506737D01*
X146376737Y-69666918D01*
X146250884Y-69855271D01*
X146164194Y-70064557D01*
X146120000Y-70286735D01*
X146120000Y-70513265D01*
X146164194Y-70735443D01*
X146250884Y-70944729D01*
X146376737Y-71133082D01*
X146536918Y-71293263D01*
X146725271Y-71419116D01*
X146934557Y-71505806D01*
X147156735Y-71550000D01*
X147383265Y-71550000D01*
X147605443Y-71505806D01*
X147814729Y-71419116D01*
X148003082Y-71293263D01*
X148163263Y-71133082D01*
X148200000Y-71078101D01*
X148200000Y-71843750D01*
X148201231Y-71859393D01*
X148223561Y-72000382D01*
X148228511Y-72019350D01*
X148233229Y-72030138D01*
X148298035Y-72157326D01*
X148308604Y-72173837D01*
X148316425Y-72182638D01*
X148417362Y-72283575D01*
X148432516Y-72296011D01*
X148442674Y-72301965D01*
X148569862Y-72366771D01*
X148588117Y-72373915D01*
X148599618Y-72376439D01*
X148740569Y-72398763D01*
X148865672Y-72418626D01*
X148964331Y-72469037D01*
X149042525Y-72547526D01*
X149092561Y-72646375D01*
X149110743Y-72763762D01*
X149105319Y-74195699D01*
X148961766Y-74410541D01*
X148788387Y-74829115D01*
X148700000Y-75273470D01*
X148700000Y-75726530D01*
X148788387Y-76170885D01*
X148961766Y-76589459D01*
X149095494Y-76789596D01*
X149092310Y-77630070D01*
X149073461Y-77836983D01*
X149020202Y-78033267D01*
X148933741Y-78217368D01*
X148816701Y-78383697D01*
X148672608Y-78527245D01*
X148505830Y-78643659D01*
X148321410Y-78729420D01*
X148124916Y-78781937D01*
X147917950Y-78800000D01*
X147552692Y-78800000D01*
X147466165Y-78713473D01*
X147089459Y-78461766D01*
X146670885Y-78288387D01*
X146226530Y-78200000D01*
X145773470Y-78200000D01*
X145329115Y-78288387D01*
X145091254Y-78386912D01*
X145076744Y-78295298D01*
X145071794Y-78276330D01*
X145067076Y-78265543D01*
X145003159Y-78140098D01*
X144992590Y-78123588D01*
X144984769Y-78114786D01*
X144885214Y-78015231D01*
X144870060Y-78002795D01*
X144859902Y-77996841D01*
X144734457Y-77932924D01*
X144716202Y-77925779D01*
X144704702Y-77923256D01*
X144565644Y-77901231D01*
X144550000Y-77900000D01*
X144456551Y-77900000D01*
X144333756Y-77883834D01*
X144225430Y-77838964D01*
X144132412Y-77767588D01*
X144061036Y-77674570D01*
X144016166Y-77566244D01*
X144000000Y-77443449D01*
X144000000Y-77334707D01*
X144472885Y-77334707D01*
X144704933Y-77652541D01*
X145149756Y-77863835D01*
X145627255Y-77984289D01*
X146119078Y-78009273D01*
X146606325Y-77937828D01*
X147070271Y-77772698D01*
X147295067Y-77652541D01*
X147527115Y-77334707D01*
X146000000Y-75807591D01*
X144472885Y-77334707D01*
X144000000Y-77334707D01*
X144000000Y-76906436D01*
X144165293Y-77027115D01*
X145692409Y-75500000D01*
X146307591Y-75500000D01*
X147834707Y-77027115D01*
X148152541Y-76795067D01*
X148363835Y-76350244D01*
X148484289Y-75872745D01*
X148509273Y-75380922D01*
X148437828Y-74893675D01*
X148272698Y-74429729D01*
X148152541Y-74204933D01*
X147834707Y-73972885D01*
X146307591Y-75500000D01*
X145692409Y-75500000D01*
X144165293Y-73972885D01*
X144000000Y-74093564D01*
X144000000Y-73665293D01*
X144472885Y-73665293D01*
X146000000Y-75192409D01*
X147527115Y-73665293D01*
X147295067Y-73347459D01*
X146850244Y-73136165D01*
X146372745Y-73015711D01*
X145880922Y-72990727D01*
X145393675Y-73062172D01*
X144929729Y-73227302D01*
X144704933Y-73347459D01*
X144472885Y-73665293D01*
X144000000Y-73665293D01*
X144000000Y-71527957D01*
X144122811Y-71605756D01*
X144306750Y-71681936D01*
X144512500Y-71605537D01*
X144512500Y-70617500D01*
X144947500Y-70617500D01*
X144947500Y-71605537D01*
X145153250Y-71681936D01*
X145337189Y-71605756D01*
X145560753Y-71464131D01*
X145752392Y-71281612D01*
X145904741Y-71065213D01*
X146011945Y-70823251D01*
X145937373Y-70617500D01*
X144947500Y-70617500D01*
X144512500Y-70617500D01*
X144492500Y-70617500D01*
X144492500Y-70182500D01*
X144512500Y-70182500D01*
X144512500Y-70162500D01*
X144947500Y-70162500D01*
X144947500Y-70182500D01*
X145937373Y-70182500D01*
X146011945Y-69976749D01*
X145904741Y-69734787D01*
X145752392Y-69518388D01*
X145560753Y-69335869D01*
X145337189Y-69194244D01*
X145169997Y-69125000D01*
X147711807Y-69125000D01*
X147781814Y-69174020D01*
%TA.AperFunction,Conductor*%
D14*
G36*
X147781814Y-69174020D02*
G01*
X147925980Y-69318186D01*
X148042918Y-69485190D01*
X148096551Y-69600206D01*
X148003082Y-69506737D01*
X147814729Y-69380884D01*
X147605443Y-69294194D01*
X147383265Y-69250000D01*
X147156735Y-69250000D01*
X146934557Y-69294194D01*
X146725271Y-69380884D01*
X146536918Y-69506737D01*
X146376737Y-69666918D01*
X146250884Y-69855271D01*
X146164194Y-70064557D01*
X146120000Y-70286735D01*
X146120000Y-70513265D01*
X146164194Y-70735443D01*
X146250884Y-70944729D01*
X146376737Y-71133082D01*
X146536918Y-71293263D01*
X146725271Y-71419116D01*
X146934557Y-71505806D01*
X147156735Y-71550000D01*
X147383265Y-71550000D01*
X147605443Y-71505806D01*
X147814729Y-71419116D01*
X148003082Y-71293263D01*
X148163263Y-71133082D01*
X148200000Y-71078101D01*
X148200000Y-71843750D01*
X148201231Y-71859393D01*
X148223561Y-72000382D01*
X148228511Y-72019350D01*
X148233229Y-72030138D01*
X148298035Y-72157326D01*
X148308604Y-72173837D01*
X148316425Y-72182638D01*
X148417362Y-72283575D01*
X148432516Y-72296011D01*
X148442674Y-72301965D01*
X148569862Y-72366771D01*
X148588117Y-72373915D01*
X148599618Y-72376439D01*
X148740569Y-72398763D01*
X148865672Y-72418626D01*
X148964331Y-72469037D01*
X149042525Y-72547526D01*
X149092561Y-72646375D01*
X149110743Y-72763762D01*
X149105319Y-74195699D01*
X148961766Y-74410541D01*
X148788387Y-74829115D01*
X148700000Y-75273470D01*
X148700000Y-75726530D01*
X148788387Y-76170885D01*
X148961766Y-76589459D01*
X149095494Y-76789596D01*
X149092310Y-77630070D01*
X149073461Y-77836983D01*
X149020202Y-78033267D01*
X148933741Y-78217368D01*
X148816701Y-78383697D01*
X148672608Y-78527245D01*
X148505830Y-78643659D01*
X148321410Y-78729420D01*
X148124916Y-78781937D01*
X147917950Y-78800000D01*
X147552692Y-78800000D01*
X147466165Y-78713473D01*
X147089459Y-78461766D01*
X146670885Y-78288387D01*
X146226530Y-78200000D01*
X145773470Y-78200000D01*
X145329115Y-78288387D01*
X145091254Y-78386912D01*
X145076744Y-78295298D01*
X145071794Y-78276330D01*
X145067076Y-78265543D01*
X145003159Y-78140098D01*
X144992590Y-78123588D01*
X144984769Y-78114786D01*
X144885214Y-78015231D01*
X144870060Y-78002795D01*
X144859902Y-77996841D01*
X144734457Y-77932924D01*
X144716202Y-77925779D01*
X144704702Y-77923256D01*
X144565644Y-77901231D01*
X144550000Y-77900000D01*
X144456551Y-77900000D01*
X144333756Y-77883834D01*
X144225430Y-77838964D01*
X144132412Y-77767588D01*
X144061036Y-77674570D01*
X144016166Y-77566244D01*
X144000000Y-77443449D01*
X144000000Y-77334707D01*
X144472885Y-77334707D01*
X144704933Y-77652541D01*
X145149756Y-77863835D01*
X145627255Y-77984289D01*
X146119078Y-78009273D01*
X146606325Y-77937828D01*
X147070271Y-77772698D01*
X147295067Y-77652541D01*
X147527115Y-77334707D01*
X146000000Y-75807591D01*
X144472885Y-77334707D01*
X144000000Y-77334707D01*
X144000000Y-76906436D01*
X144165293Y-77027115D01*
X145692409Y-75500000D01*
X146307591Y-75500000D01*
X147834707Y-77027115D01*
X148152541Y-76795067D01*
X148363835Y-76350244D01*
X148484289Y-75872745D01*
X148509273Y-75380922D01*
X148437828Y-74893675D01*
X148272698Y-74429729D01*
X148152541Y-74204933D01*
X147834707Y-73972885D01*
X146307591Y-75500000D01*
X145692409Y-75500000D01*
X144165293Y-73972885D01*
X144000000Y-74093564D01*
X144000000Y-73665293D01*
X144472885Y-73665293D01*
X146000000Y-75192409D01*
X147527115Y-73665293D01*
X147295067Y-73347459D01*
X146850244Y-73136165D01*
X146372745Y-73015711D01*
X145880922Y-72990727D01*
X145393675Y-73062172D01*
X144929729Y-73227302D01*
X144704933Y-73347459D01*
X144472885Y-73665293D01*
X144000000Y-73665293D01*
X144000000Y-71527957D01*
X144122811Y-71605756D01*
X144306750Y-71681936D01*
X144512500Y-71605537D01*
X144512500Y-70617500D01*
X144947500Y-70617500D01*
X144947500Y-71605537D01*
X145153250Y-71681936D01*
X145337189Y-71605756D01*
X145560753Y-71464131D01*
X145752392Y-71281612D01*
X145904741Y-71065213D01*
X146011945Y-70823251D01*
X145937373Y-70617500D01*
X144947500Y-70617500D01*
X144512500Y-70617500D01*
X144492500Y-70617500D01*
X144492500Y-70182500D01*
X144512500Y-70182500D01*
X144512500Y-70162500D01*
X144947500Y-70162500D01*
X144947500Y-70182500D01*
X145937373Y-70182500D01*
X146011945Y-69976749D01*
X145904741Y-69734787D01*
X145752392Y-69518388D01*
X145560753Y-69335869D01*
X145337189Y-69194244D01*
X145169997Y-69125000D01*
X147711807Y-69125000D01*
X147781814Y-69174020D01*
G37*
%TD.AperFunction*%
%TD*%
D13*
%TO.N,/LED+*%
X155981814Y-69174020D02*
X156125980Y-69318186D01*
X156175001Y-69388195D01*
X156175000Y-88911806D01*
X156125980Y-88981814D01*
X155981814Y-89125980D01*
X155911807Y-89175000D01*
X147288193Y-89175000D01*
X147218186Y-89125980D01*
X147074020Y-88981814D01*
X146957082Y-88814810D01*
X146870919Y-88630034D01*
X146818150Y-88433097D01*
X146800000Y-88225639D01*
X146800000Y-87658132D01*
X147089459Y-87538234D01*
X147466165Y-87286527D01*
X147786527Y-86966165D01*
X148038234Y-86589459D01*
X148211613Y-86170885D01*
X148300000Y-85726530D01*
X148300000Y-85273470D01*
X148700000Y-85273470D01*
X148700000Y-85726530D01*
X148788387Y-86170885D01*
X148961766Y-86589459D01*
X149213473Y-86966165D01*
X149533835Y-87286527D01*
X149910541Y-87538234D01*
X150329115Y-87711613D01*
X150773470Y-87800000D01*
X151226530Y-87800000D01*
X151670885Y-87711613D01*
X152089459Y-87538234D01*
X152466165Y-87286527D01*
X152786527Y-86966165D01*
X153038234Y-86589459D01*
X153211613Y-86170885D01*
X153300000Y-85726530D01*
X153300000Y-85273470D01*
X153211613Y-84829115D01*
X153038234Y-84410541D01*
X152786527Y-84033835D01*
X152466165Y-83713473D01*
X152089459Y-83461766D01*
X151670885Y-83288387D01*
X151226530Y-83200000D01*
X150773470Y-83200000D01*
X150329115Y-83288387D01*
X149910541Y-83461766D01*
X149533835Y-83713473D01*
X149213473Y-84033835D01*
X148961766Y-84410541D01*
X148788387Y-84829115D01*
X148700000Y-85273470D01*
X148300000Y-85273470D01*
X148211613Y-84829115D01*
X148038234Y-84410541D01*
X147786527Y-84033835D01*
X147466165Y-83713473D01*
X147089459Y-83461766D01*
X146800000Y-83341868D01*
X146800000Y-82658132D01*
X147089459Y-82538234D01*
X147394058Y-82334707D01*
X149472885Y-82334707D01*
X149704933Y-82652541D01*
X150149756Y-82863835D01*
X150627255Y-82984289D01*
X151119078Y-83009273D01*
X151606325Y-82937828D01*
X152070271Y-82772698D01*
X152295067Y-82652541D01*
X152527115Y-82334707D01*
X151000000Y-80807591D01*
X149472885Y-82334707D01*
X147394058Y-82334707D01*
X147466165Y-82286527D01*
X147786527Y-81966165D01*
X148038234Y-81589459D01*
X148211613Y-81170885D01*
X148300000Y-80726530D01*
X148300000Y-80619078D01*
X148490727Y-80619078D01*
X148562172Y-81106325D01*
X148727302Y-81570271D01*
X148847459Y-81795067D01*
X149165293Y-82027115D01*
X150692409Y-80500000D01*
X151307591Y-80500000D01*
X152834707Y-82027115D01*
X153152541Y-81795067D01*
X153363835Y-81350244D01*
X153484289Y-80872745D01*
X153509273Y-80380922D01*
X153437828Y-79893675D01*
X153272698Y-79429729D01*
X153152541Y-79204933D01*
X152834707Y-78972885D01*
X151307591Y-80500000D01*
X150692409Y-80500000D01*
X149165293Y-78972885D01*
X148847459Y-79204933D01*
X148636165Y-79649756D01*
X148515711Y-80127255D01*
X148490727Y-80619078D01*
X148300000Y-80619078D01*
X148300000Y-80273470D01*
X148211613Y-79829115D01*
X148038234Y-79410541D01*
X147901797Y-79206348D01*
X147974361Y-79200000D01*
X148130000Y-79200000D01*
X148138716Y-79199619D01*
X148359249Y-79180325D01*
X148376415Y-79177299D01*
X148590248Y-79120003D01*
X148606628Y-79114041D01*
X148807262Y-79020483D01*
X148822358Y-79011767D01*
X149003698Y-78884791D01*
X149017051Y-78873587D01*
X149173587Y-78717051D01*
X149184791Y-78703698D01*
X149211682Y-78665293D01*
X149472885Y-78665293D01*
X151000000Y-80192409D01*
X152527115Y-78665293D01*
X152295067Y-78347459D01*
X151850244Y-78136165D01*
X151372745Y-78015711D01*
X150880922Y-77990727D01*
X150393675Y-78062172D01*
X149929729Y-78227302D01*
X149704933Y-78347459D01*
X149472885Y-78665293D01*
X149211682Y-78665293D01*
X149311767Y-78522358D01*
X149320483Y-78507262D01*
X149414041Y-78306628D01*
X149420003Y-78290248D01*
X149477299Y-78076415D01*
X149480325Y-78059249D01*
X149499619Y-77838716D01*
X149500000Y-77830000D01*
X149500000Y-77252692D01*
X149533835Y-77286527D01*
X149910541Y-77538234D01*
X150329115Y-77711613D01*
X150773470Y-77800000D01*
X151226530Y-77800000D01*
X151670885Y-77711613D01*
X152089459Y-77538234D01*
X152466165Y-77286527D01*
X152786527Y-76966165D01*
X153038234Y-76589459D01*
X153211613Y-76170885D01*
X153300000Y-75726530D01*
X153300000Y-75273470D01*
X153211613Y-74829115D01*
X153038234Y-74410541D01*
X152786527Y-74033835D01*
X152466165Y-73713473D01*
X152089459Y-73461766D01*
X151670885Y-73288387D01*
X151226530Y-73200000D01*
X150773470Y-73200000D01*
X150329115Y-73288387D01*
X149910541Y-73461766D01*
X149533835Y-73713473D01*
X149500000Y-73747308D01*
X149500000Y-72550000D01*
X149498769Y-72534356D01*
X149476744Y-72395298D01*
X149471794Y-72376330D01*
X149467076Y-72365543D01*
X149403159Y-72240098D01*
X149392590Y-72223588D01*
X149384769Y-72214786D01*
X149285214Y-72115231D01*
X149270060Y-72102795D01*
X149259902Y-72096841D01*
X149134457Y-72032924D01*
X149116202Y-72025779D01*
X149104702Y-72023256D01*
X148842229Y-71981684D01*
X148745009Y-71932148D01*
X148667852Y-71854991D01*
X148618316Y-71757771D01*
X148600000Y-71642128D01*
X148600000Y-70985633D01*
X148635259Y-71065213D01*
X148787608Y-71281612D01*
X148979247Y-71464131D01*
X149202811Y-71605756D01*
X149386750Y-71681936D01*
X149592500Y-71605537D01*
X149592500Y-70617500D01*
X150027500Y-70617500D01*
X150027500Y-71605537D01*
X150233250Y-71681936D01*
X150417189Y-71605756D01*
X150640753Y-71464131D01*
X150832392Y-71281612D01*
X150984741Y-71065213D01*
X151091945Y-70823251D01*
X151017373Y-70617500D01*
X150027500Y-70617500D01*
X149592500Y-70617500D01*
X149572500Y-70617500D01*
X149572500Y-70286735D01*
X151200000Y-70286735D01*
X151200000Y-70513265D01*
X151244194Y-70735443D01*
X151330884Y-70944729D01*
X151456737Y-71133082D01*
X151616918Y-71293263D01*
X151805271Y-71419116D01*
X152014557Y-71505806D01*
X152236735Y-71550000D01*
X152463265Y-71550000D01*
X152685443Y-71505806D01*
X152894729Y-71419116D01*
X153083082Y-71293263D01*
X153243263Y-71133082D01*
X153369116Y-70944729D01*
X153455806Y-70735443D01*
X153500000Y-70513265D01*
X153500000Y-70286735D01*
X153740000Y-70286735D01*
X153740000Y-70513265D01*
X153784194Y-70735443D01*
X153870884Y-70944729D01*
X153996737Y-71133082D01*
X154156918Y-71293263D01*
X154345271Y-71419116D01*
X154554557Y-71505806D01*
X154776735Y-71550000D01*
X155003265Y-71550000D01*
X155225443Y-71505806D01*
X155434729Y-71419116D01*
X155623082Y-71293263D01*
X155783263Y-71133082D01*
X155909116Y-70944729D01*
X155995806Y-70735443D01*
X156040000Y-70513265D01*
X156040000Y-70286735D01*
X155995806Y-70064557D01*
X155909116Y-69855271D01*
X155783263Y-69666918D01*
X155623082Y-69506737D01*
X155434729Y-69380884D01*
X155225443Y-69294194D01*
X155003265Y-69250000D01*
X154776735Y-69250000D01*
X154554557Y-69294194D01*
X154345271Y-69380884D01*
X154156918Y-69506737D01*
X153996737Y-69666918D01*
X153870884Y-69855271D01*
X153784194Y-70064557D01*
X153740000Y-70286735D01*
X153500000Y-70286735D01*
X153455806Y-70064557D01*
X153369116Y-69855271D01*
X153243263Y-69666918D01*
X153083082Y-69506737D01*
X152894729Y-69380884D01*
X152685443Y-69294194D01*
X152463265Y-69250000D01*
X152236735Y-69250000D01*
X152014557Y-69294194D01*
X151805271Y-69380884D01*
X151616918Y-69506737D01*
X151456737Y-69666918D01*
X151330884Y-69855271D01*
X151244194Y-70064557D01*
X151200000Y-70286735D01*
X149572500Y-70286735D01*
X149572500Y-70182500D01*
X149592500Y-70182500D01*
X149592500Y-70162500D01*
X150027500Y-70162500D01*
X150027500Y-70182500D01*
X151017373Y-70182500D01*
X151091945Y-69976749D01*
X150984741Y-69734787D01*
X150832392Y-69518388D01*
X150640753Y-69335869D01*
X150417189Y-69194244D01*
X150249997Y-69125000D01*
X155911807Y-69125000D01*
X155981814Y-69174020D01*
%TA.AperFunction,Conductor*%
D14*
G36*
X155981814Y-69174020D02*
G01*
X156125980Y-69318186D01*
X156175001Y-69388195D01*
X156175000Y-88911806D01*
X156125980Y-88981814D01*
X155981814Y-89125980D01*
X155911807Y-89175000D01*
X147288193Y-89175000D01*
X147218186Y-89125980D01*
X147074020Y-88981814D01*
X146957082Y-88814810D01*
X146870919Y-88630034D01*
X146818150Y-88433097D01*
X146800000Y-88225639D01*
X146800000Y-87658132D01*
X147089459Y-87538234D01*
X147466165Y-87286527D01*
X147786527Y-86966165D01*
X148038234Y-86589459D01*
X148211613Y-86170885D01*
X148300000Y-85726530D01*
X148300000Y-85273470D01*
X148700000Y-85273470D01*
X148700000Y-85726530D01*
X148788387Y-86170885D01*
X148961766Y-86589459D01*
X149213473Y-86966165D01*
X149533835Y-87286527D01*
X149910541Y-87538234D01*
X150329115Y-87711613D01*
X150773470Y-87800000D01*
X151226530Y-87800000D01*
X151670885Y-87711613D01*
X152089459Y-87538234D01*
X152466165Y-87286527D01*
X152786527Y-86966165D01*
X153038234Y-86589459D01*
X153211613Y-86170885D01*
X153300000Y-85726530D01*
X153300000Y-85273470D01*
X153211613Y-84829115D01*
X153038234Y-84410541D01*
X152786527Y-84033835D01*
X152466165Y-83713473D01*
X152089459Y-83461766D01*
X151670885Y-83288387D01*
X151226530Y-83200000D01*
X150773470Y-83200000D01*
X150329115Y-83288387D01*
X149910541Y-83461766D01*
X149533835Y-83713473D01*
X149213473Y-84033835D01*
X148961766Y-84410541D01*
X148788387Y-84829115D01*
X148700000Y-85273470D01*
X148300000Y-85273470D01*
X148211613Y-84829115D01*
X148038234Y-84410541D01*
X147786527Y-84033835D01*
X147466165Y-83713473D01*
X147089459Y-83461766D01*
X146800000Y-83341868D01*
X146800000Y-82658132D01*
X147089459Y-82538234D01*
X147394058Y-82334707D01*
X149472885Y-82334707D01*
X149704933Y-82652541D01*
X150149756Y-82863835D01*
X150627255Y-82984289D01*
X151119078Y-83009273D01*
X151606325Y-82937828D01*
X152070271Y-82772698D01*
X152295067Y-82652541D01*
X152527115Y-82334707D01*
X151000000Y-80807591D01*
X149472885Y-82334707D01*
X147394058Y-82334707D01*
X147466165Y-82286527D01*
X147786527Y-81966165D01*
X148038234Y-81589459D01*
X148211613Y-81170885D01*
X148300000Y-80726530D01*
X148300000Y-80619078D01*
X148490727Y-80619078D01*
X148562172Y-81106325D01*
X148727302Y-81570271D01*
X148847459Y-81795067D01*
X149165293Y-82027115D01*
X150692409Y-80500000D01*
X151307591Y-80500000D01*
X152834707Y-82027115D01*
X153152541Y-81795067D01*
X153363835Y-81350244D01*
X153484289Y-80872745D01*
X153509273Y-80380922D01*
X153437828Y-79893675D01*
X153272698Y-79429729D01*
X153152541Y-79204933D01*
X152834707Y-78972885D01*
X151307591Y-80500000D01*
X150692409Y-80500000D01*
X149165293Y-78972885D01*
X148847459Y-79204933D01*
X148636165Y-79649756D01*
X148515711Y-80127255D01*
X148490727Y-80619078D01*
X148300000Y-80619078D01*
X148300000Y-80273470D01*
X148211613Y-79829115D01*
X148038234Y-79410541D01*
X147901797Y-79206348D01*
X147974361Y-79200000D01*
X148130000Y-79200000D01*
X148138716Y-79199619D01*
X148359249Y-79180325D01*
X148376415Y-79177299D01*
X148590248Y-79120003D01*
X148606628Y-79114041D01*
X148807262Y-79020483D01*
X148822358Y-79011767D01*
X149003698Y-78884791D01*
X149017051Y-78873587D01*
X149173587Y-78717051D01*
X149184791Y-78703698D01*
X149211682Y-78665293D01*
X149472885Y-78665293D01*
X151000000Y-80192409D01*
X152527115Y-78665293D01*
X152295067Y-78347459D01*
X151850244Y-78136165D01*
X151372745Y-78015711D01*
X150880922Y-77990727D01*
X150393675Y-78062172D01*
X149929729Y-78227302D01*
X149704933Y-78347459D01*
X149472885Y-78665293D01*
X149211682Y-78665293D01*
X149311767Y-78522358D01*
X149320483Y-78507262D01*
X149414041Y-78306628D01*
X149420003Y-78290248D01*
X149477299Y-78076415D01*
X149480325Y-78059249D01*
X149499619Y-77838716D01*
X149500000Y-77830000D01*
X149500000Y-77252692D01*
X149533835Y-77286527D01*
X149910541Y-77538234D01*
X150329115Y-77711613D01*
X150773470Y-77800000D01*
X151226530Y-77800000D01*
X151670885Y-77711613D01*
X152089459Y-77538234D01*
X152466165Y-77286527D01*
X152786527Y-76966165D01*
X153038234Y-76589459D01*
X153211613Y-76170885D01*
X153300000Y-75726530D01*
X153300000Y-75273470D01*
X153211613Y-74829115D01*
X153038234Y-74410541D01*
X152786527Y-74033835D01*
X152466165Y-73713473D01*
X152089459Y-73461766D01*
X151670885Y-73288387D01*
X151226530Y-73200000D01*
X150773470Y-73200000D01*
X150329115Y-73288387D01*
X149910541Y-73461766D01*
X149533835Y-73713473D01*
X149500000Y-73747308D01*
X149500000Y-72550000D01*
X149498769Y-72534356D01*
X149476744Y-72395298D01*
X149471794Y-72376330D01*
X149467076Y-72365543D01*
X149403159Y-72240098D01*
X149392590Y-72223588D01*
X149384769Y-72214786D01*
X149285214Y-72115231D01*
X149270060Y-72102795D01*
X149259902Y-72096841D01*
X149134457Y-72032924D01*
X149116202Y-72025779D01*
X149104702Y-72023256D01*
X148842229Y-71981684D01*
X148745009Y-71932148D01*
X148667852Y-71854991D01*
X148618316Y-71757771D01*
X148600000Y-71642128D01*
X148600000Y-70985633D01*
X148635259Y-71065213D01*
X148787608Y-71281612D01*
X148979247Y-71464131D01*
X149202811Y-71605756D01*
X149386750Y-71681936D01*
X149592500Y-71605537D01*
X149592500Y-70617500D01*
X150027500Y-70617500D01*
X150027500Y-71605537D01*
X150233250Y-71681936D01*
X150417189Y-71605756D01*
X150640753Y-71464131D01*
X150832392Y-71281612D01*
X150984741Y-71065213D01*
X151091945Y-70823251D01*
X151017373Y-70617500D01*
X150027500Y-70617500D01*
X149592500Y-70617500D01*
X149572500Y-70617500D01*
X149572500Y-70286735D01*
X151200000Y-70286735D01*
X151200000Y-70513265D01*
X151244194Y-70735443D01*
X151330884Y-70944729D01*
X151456737Y-71133082D01*
X151616918Y-71293263D01*
X151805271Y-71419116D01*
X152014557Y-71505806D01*
X152236735Y-71550000D01*
X152463265Y-71550000D01*
X152685443Y-71505806D01*
X152894729Y-71419116D01*
X153083082Y-71293263D01*
X153243263Y-71133082D01*
X153369116Y-70944729D01*
X153455806Y-70735443D01*
X153500000Y-70513265D01*
X153500000Y-70286735D01*
X153740000Y-70286735D01*
X153740000Y-70513265D01*
X153784194Y-70735443D01*
X153870884Y-70944729D01*
X153996737Y-71133082D01*
X154156918Y-71293263D01*
X154345271Y-71419116D01*
X154554557Y-71505806D01*
X154776735Y-71550000D01*
X155003265Y-71550000D01*
X155225443Y-71505806D01*
X155434729Y-71419116D01*
X155623082Y-71293263D01*
X155783263Y-71133082D01*
X155909116Y-70944729D01*
X155995806Y-70735443D01*
X156040000Y-70513265D01*
X156040000Y-70286735D01*
X155995806Y-70064557D01*
X155909116Y-69855271D01*
X155783263Y-69666918D01*
X155623082Y-69506737D01*
X155434729Y-69380884D01*
X155225443Y-69294194D01*
X155003265Y-69250000D01*
X154776735Y-69250000D01*
X154554557Y-69294194D01*
X154345271Y-69380884D01*
X154156918Y-69506737D01*
X153996737Y-69666918D01*
X153870884Y-69855271D01*
X153784194Y-70064557D01*
X153740000Y-70286735D01*
X153500000Y-70286735D01*
X153455806Y-70064557D01*
X153369116Y-69855271D01*
X153243263Y-69666918D01*
X153083082Y-69506737D01*
X152894729Y-69380884D01*
X152685443Y-69294194D01*
X152463265Y-69250000D01*
X152236735Y-69250000D01*
X152014557Y-69294194D01*
X151805271Y-69380884D01*
X151616918Y-69506737D01*
X151456737Y-69666918D01*
X151330884Y-69855271D01*
X151244194Y-70064557D01*
X151200000Y-70286735D01*
X149572500Y-70286735D01*
X149572500Y-70182500D01*
X149592500Y-70182500D01*
X149592500Y-70162500D01*
X150027500Y-70162500D01*
X150027500Y-70182500D01*
X151017373Y-70182500D01*
X151091945Y-69976749D01*
X150984741Y-69734787D01*
X150832392Y-69518388D01*
X150640753Y-69335869D01*
X150417189Y-69194244D01*
X150249997Y-69125000D01*
X155911807Y-69125000D01*
X155981814Y-69174020D01*
G37*
%TD.AperFunction*%
%TD*%
M02*
